{
	"asset":{
		"generator":"Khronos glTF Blender I/O v3.5.30",
		"version":"2.0"
	},
	"extensionsUsed":[
		"KHR_materials_specular",
		"KHR_materials_ior",
		"KHR_lights_punctual"
	],
	"extensionsRequired":[
		"KHR_lights_punctual"
	],
	"extensions":{
		"KHR_lights_punctual":{
			"lights":[
				{
					"color":[
						0.31167346239089966,
						1,
						0.23997677862644196
					],
					"intensity":27175.70653294113,
					"spot":{
						"innerConeAngle":0.14973094263356757,
						"outerConeAngle":0.3825981616973877
					},
					"type":"spot",
					"name":"Spot"
				},
				{
					"color":[
						1,
						1,
						1
					],
					"intensity":108702.82613176452,
					"type":"point",
					"name":"Sun"
				}
			]
		}
	},
	"scene":0,
	"scenes":[
		{
			"name":"Scene",
			"nodes":[
				0,
				1,
				2,
				3,
				4,
				5,
				6,
				7,
				8,
				9,
				10,
				11,
				12,
				13,
				14,
				15,
				16,
				17
			]
		}
	],
	"nodes":[
		{
			"camera":0,
			"name":"Camera",
			"rotation":[
				-0.20159360766410828,
				0.3201715052127838,
				0.06992777436971664,
				0.9230169653892517
			],
			"translation":[
				13,
				9,
				10
			]
		},
		{
			"mesh":0,
			"name":"rat",
			"rotation":[
				-0.07981472462415695,
				0,
				0,
				0.996809720993042
			],
			"scale":[
				0.6370012164115906,
				0.373370885848999,
				0.3152891993522644
			],
			"translation":[
				0.49483373761177063,
				0.14058060944080353,
				-0.5150477290153503
			]
		},
		{
			"mesh":1,
			"name":"wall1",
			"scale":[
				4.950199604034424,
				0.7362803220748901,
				1.0149025917053223
			],
			"translation":[
				-0.10000000149011612,
				0.5,
				-4
			]
		},
		{
			"mesh":2,
			"name":"wall2",
			"scale":[
				1.1044005155563354,
				0.7604541778564453,
				1.4342050552368164
			],
			"translation":[
				1.899999976158142,
				0.5,
				-8.100000381469727
			]
		},
		{
			"mesh":3,
			"name":"food",
			"translation":[
				3.4677069187164307,
				0.1907186508178711,
				-7.577731609344482
			]
		},
		{
			"extensions":{
				"KHR_lights_punctual":{
					"light":0
				}
			},
			"name":"food-spotlight",
			"rotation":[
				-0.526282787322998,
				-0.10149466246366501,
				-0.5421020984649658,
				0.6471867561340332
			],
			"translation":[
				4.5,
				2,
				-6.599999904632568
			]
		},
		{
			"extensions":{
				"KHR_lights_punctual":{
					"light":1
				}
			},
			"name":"main-light",
			"rotation":[
				-0.7071068286895752,
				0,
				0,
				0.7071068286895752
			],
			"translation":[
				4,
				6,
				-5
			]
		},
		{
			"mesh":4,
			"name":"tile1",
			"scale":[
				0.5,
				0.05000000074505806,
				0.5
			],
			"translation":[
				0.5,
				0,
				-0.5
			]
		},
		{
			"mesh":5,
			"name":"tile2",
			"scale":[
				0.5,
				0.05000000074505806,
				0.5
			],
			"translation":[
				0.5,
				0.025727784261107445,
				-1.5
			]
		},
		{
			"mesh":6,
			"name":"tile3",
			"scale":[
				0.5,
				0.05000000074505806,
				0.5
			],
			"translation":[
				0.5,
				0.025727784261107445,
				-2.5
			]
		},
		{
			"mesh":7,
			"name":"tile4",
			"scale":[
				0.5,
				0.05000000074505806,
				0.5
			],
			"translation":[
				0.5,
				0.025727784261107445,
				-3.500000476837158
			]
		},
		{
			"mesh":8,
			"name":"tile5",
			"scale":[
				0.5,
				0.05000000074505806,
				0.5
			],
			"translation":[
				0.5,
				0.025727784261107445,
				-4.5
			]
		},
		{
			"mesh":9,
			"name":"tile6",
			"scale":[
				0.5,
				0.05000000074505806,
				0.5
			],
			"translation":[
				0.5,
				0.025727784261107445,
				-5.5
			]
		},
		{
			"mesh":10,
			"name":"tile7",
			"scale":[
				0.5,
				0.05000000074505806,
				0.5
			],
			"translation":[
				0.5,
				0.025727784261107445,
				-6.499999523162842
			]
		},
		{
			"mesh":11,
			"name":"tile8",
			"scale":[
				0.5,
				0.05000000074505806,
				0.5
			],
			"translation":[
				0.5,
				0.025727784261107445,
				-7.499999523162842
			]
		},
		{
			"mesh":12,
			"name":"tile9",
			"scale":[
				0.5,
				0.05000000074505806,
				0.5
			],
			"translation":[
				1.500045657157898,
				0,
				-7.499866962432861
			]
		},
		{
			"mesh":13,
			"name":"tile10",
			"scale":[
				0.5,
				0.05000000074505806,
				0.5
			],
			"translation":[
				2.5000457763671875,
				0,
				-7.499866962432861
			]
		},
		{
			"mesh":14,
			"name":"tile11",
			"scale":[
				0.5,
				0.05000000074505806,
				0.5
			],
			"translation":[
				3.5000457763671875,
				0,
				-7.499866962432861
			]
		}
	],
	"cameras":[
		{
			"name":"Camera",
			"orthographic":{
				"xmag":4.407144069671631,
				"ymag":2.4790185391902924,
				"zfar":100,
				"znear":0.10000000149011612
			},
			"type":"orthographic"
		}
	],
	"materials":[
		{
			"doubleSided":true,
			"emissiveFactor":[
				0.9874451160430908,
				0.9874451160430908,
				0.9874451160430908
			],
			"extensions":{
				"KHR_materials_specular":{
					"specularColorFactor":[
						1.5306035048814348,
						1.5306035048814348,
						1.5306035048814348
					]
				},
				"KHR_materials_ior":{
					"ior":1.4500000476837158
				}
			},
			"name":"Material.001",
			"pbrMetallicRoughness":{
				"baseColorFactor":[
					0.9678108096122742,
					1,
					0.9758005738258362,
					1
				],
				"metallicFactor":0,
				"roughnessFactor":0.5
			}
		},
		{
			"doubleSided":true,
			"name":"Material",
			"pbrMetallicRoughness":{
				"baseColorFactor":[
					0.05329087749123573,
					0.09447328001260757,
					0.5613992810249329,
					1
				],
				"metallicFactor":0,
				"roughnessFactor":0.5
			}
		}
	],
	"meshes":[
		{
			"name":"Cube.001",
			"primitives":[
				{
					"attributes":{
						"POSITION":0,
						"TEXCOORD_0":1,
						"NORMAL":2,
						"TANGENT":3
					},
					"indices":4,
					"material":0
				}
			]
		},
		{
			"name":"Cube.003",
			"primitives":[
				{
					"attributes":{
						"POSITION":5,
						"TEXCOORD_0":6,
						"NORMAL":7,
						"TANGENT":8
					},
					"indices":4
				}
			]
		},
		{
			"name":"Cube.004",
			"primitives":[
				{
					"attributes":{
						"POSITION":9,
						"TEXCOORD_0":10,
						"NORMAL":11,
						"TANGENT":12
					},
					"indices":4
				}
			]
		},
		{
			"name":"Sphere",
			"primitives":[
				{
					"attributes":{
						"POSITION":13,
						"TEXCOORD_0":14,
						"NORMAL":15,
						"TANGENT":16
					},
					"indices":17
				}
			]
		},
		{
			"name":"Cube.002",
			"primitives":[
				{
					"attributes":{
						"POSITION":18,
						"TEXCOORD_0":19,
						"NORMAL":20,
						"TANGENT":21
					},
					"indices":22,
					"material":1
				}
			]
		},
		{
			"name":"Cube.005",
			"primitives":[
				{
					"attributes":{
						"POSITION":23,
						"TEXCOORD_0":24,
						"NORMAL":25,
						"TANGENT":26
					},
					"indices":27,
					"material":1
				}
			]
		},
		{
			"name":"Cube.006",
			"primitives":[
				{
					"attributes":{
						"POSITION":28,
						"TEXCOORD_0":29,
						"NORMAL":30,
						"TANGENT":31
					},
					"indices":27,
					"material":1
				}
			]
		},
		{
			"name":"Cube.007",
			"primitives":[
				{
					"attributes":{
						"POSITION":32,
						"TEXCOORD_0":33,
						"NORMAL":34,
						"TANGENT":35
					},
					"indices":27,
					"material":1
				}
			]
		},
		{
			"name":"Cube.008",
			"primitives":[
				{
					"attributes":{
						"POSITION":36,
						"TEXCOORD_0":37,
						"NORMAL":38,
						"TANGENT":39
					},
					"indices":27,
					"material":1
				}
			]
		},
		{
			"name":"Cube.009",
			"primitives":[
				{
					"attributes":{
						"POSITION":40,
						"TEXCOORD_0":41,
						"NORMAL":42,
						"TANGENT":43
					},
					"indices":27,
					"material":1
				}
			]
		},
		{
			"name":"Cube.010",
			"primitives":[
				{
					"attributes":{
						"POSITION":44,
						"TEXCOORD_0":45,
						"NORMAL":46,
						"TANGENT":47
					},
					"indices":27,
					"material":1
				}
			]
		},
		{
			"name":"Cube.011",
			"primitives":[
				{
					"attributes":{
						"POSITION":48,
						"TEXCOORD_0":49,
						"NORMAL":50,
						"TANGENT":51
					},
					"indices":27,
					"material":1
				}
			]
		},
		{
			"name":"Cube",
			"primitives":[
				{
					"attributes":{
						"POSITION":52,
						"TEXCOORD_0":53,
						"NORMAL":54,
						"TANGENT":55
					},
					"indices":22,
					"material":1
				}
			]
		},
		{
			"name":"Cube.012",
			"primitives":[
				{
					"attributes":{
						"POSITION":56,
						"TEXCOORD_0":57,
						"NORMAL":58,
						"TANGENT":59
					},
					"indices":22,
					"material":1
				}
			]
		},
		{
			"name":"Cube.013",
			"primitives":[
				{
					"attributes":{
						"POSITION":60,
						"TEXCOORD_0":61,
						"NORMAL":62,
						"TANGENT":63
					},
					"indices":22,
					"material":1
				}
			]
		}
	],
	"accessors":[
		{
			"bufferView":0,
			"componentType":5126,
			"count":24,
			"max":[
				0.27548298239707947,
				0.2433265894651413,
				0.8734580278396606
			],
			"min":[
				-0.27548298239707947,
				-0.26694655418395996,
				-0.8734580278396606
			],
			"type":"VEC3"
		},
		{
			"bufferView":1,
			"componentType":5126,
			"count":24,
			"type":"VEC2"
		},
		{
			"bufferView":2,
			"componentType":5126,
			"count":24,
			"type":"VEC3"
		},
		{
			"bufferView":3,
			"componentType":5126,
			"count":24,
			"type":"VEC4"
		},
		{
			"bufferView":4,
			"componentType":5123,
			"count":36,
			"type":"SCALAR"
		},
		{
			"bufferView":5,
			"componentType":5126,
			"count":24,
			"max":[
				0.02020120620727539,
				0.6790891885757446,
				3.9412648677825928
			],
			"min":[
				-0.02020120620727539,
				-0.6790891885757446,
				-3.9412648677825928
			],
			"type":"VEC3"
		},
		{
			"bufferView":6,
			"componentType":5126,
			"count":24,
			"type":"VEC2"
		},
		{
			"bufferView":7,
			"componentType":5126,
			"count":24,
			"type":"VEC3"
		},
		{
			"bufferView":8,
			"componentType":5126,
			"count":24,
			"type":"VEC4"
		},
		{
			"bufferView":9,
			"componentType":5126,
			"count":24,
			"max":[
				1.9014838933944702,
				0.6575018167495728,
				0.06972503662109375
			],
			"min":[
				-1.9014838933944702,
				-0.6575018167495728,
				-0.06972503662109375
			],
			"type":"VEC3"
		},
		{
			"bufferView":10,
			"componentType":5126,
			"count":24,
			"type":"VEC2"
		},
		{
			"bufferView":11,
			"componentType":5126,
			"count":24,
			"type":"VEC3"
		},
		{
			"bufferView":12,
			"componentType":5126,
			"count":24,
			"type":"VEC4"
		},
		{
			"bufferView":13,
			"componentType":5126,
			"count":559,
			"max":[
				0.19071859121322632,
				0.1907186508178711,
				0.19071853160858154
			],
			"min":[
				-0.19071847200393677,
				-0.1907186508178711,
				-0.1907186508178711
			],
			"type":"VEC3"
		},
		{
			"bufferView":14,
			"componentType":5126,
			"count":559,
			"type":"VEC2"
		},
		{
			"bufferView":15,
			"componentType":5126,
			"count":559,
			"type":"VEC3"
		},
		{
			"bufferView":16,
			"componentType":5126,
			"count":559,
			"type":"VEC4"
		},
		{
			"bufferView":17,
			"componentType":5123,
			"count":2880,
			"type":"SCALAR"
		},
		{
			"bufferView":18,
			"componentType":5126,
			"count":40,
			"max":[
				1,
				1.6085374355316162,
				1
			],
			"min":[
				-1,
				-1,
				-1
			],
			"type":"VEC3"
		},
		{
			"bufferView":19,
			"componentType":5126,
			"count":40,
			"type":"VEC2"
		},
		{
			"bufferView":20,
			"componentType":5126,
			"count":40,
			"type":"VEC3"
		},
		{
			"bufferView":21,
			"componentType":5126,
			"count":40,
			"type":"VEC4"
		},
		{
			"bufferView":22,
			"componentType":5123,
			"count":60,
			"type":"SCALAR"
		},
		{
			"bufferView":23,
			"componentType":5126,
			"count":40,
			"max":[
				1,
				1.0939817428588867,
				1
			],
			"min":[
				-1,
				-1.5145556926727295,
				-1
			],
			"type":"VEC3"
		},
		{
			"bufferView":24,
			"componentType":5126,
			"count":40,
			"type":"VEC2"
		},
		{
			"bufferView":25,
			"componentType":5126,
			"count":40,
			"type":"VEC3"
		},
		{
			"bufferView":26,
			"componentType":5126,
			"count":40,
			"type":"VEC4"
		},
		{
			"bufferView":27,
			"componentType":5123,
			"count":60,
			"type":"SCALAR"
		},
		{
			"bufferView":28,
			"componentType":5126,
			"count":40,
			"max":[
				1,
				1.0939817428588867,
				0.9999997615814209
			],
			"min":[
				-1,
				-1.5145556926727295,
				-1.000000238418579
			],
			"type":"VEC3"
		},
		{
			"bufferView":29,
			"componentType":5126,
			"count":40,
			"type":"VEC2"
		},
		{
			"bufferView":30,
			"componentType":5126,
			"count":40,
			"type":"VEC3"
		},
		{
			"bufferView":31,
			"componentType":5126,
			"count":40,
			"type":"VEC4"
		},
		{
			"bufferView":32,
			"componentType":5126,
			"count":40,
			"max":[
				1,
				1.0939817428588867,
				1.0000009536743164
			],
			"min":[
				-1,
				-1.5145556926727295,
				-0.9999990463256836
			],
			"type":"VEC3"
		},
		{
			"bufferView":33,
			"componentType":5126,
			"count":40,
			"type":"VEC2"
		},
		{
			"bufferView":34,
			"componentType":5126,
			"count":40,
			"type":"VEC3"
		},
		{
			"bufferView":35,
			"componentType":5126,
			"count":40,
			"type":"VEC4"
		},
		{
			"bufferView":36,
			"componentType":5126,
			"count":40,
			"max":[
				1,
				1.0939817428588867,
				1
			],
			"min":[
				-1,
				-1.5145556926727295,
				-1
			],
			"type":"VEC3"
		},
		{
			"bufferView":37,
			"componentType":5126,
			"count":40,
			"type":"VEC2"
		},
		{
			"bufferView":38,
			"componentType":5126,
			"count":40,
			"type":"VEC3"
		},
		{
			"bufferView":39,
			"componentType":5126,
			"count":40,
			"type":"VEC4"
		},
		{
			"bufferView":40,
			"componentType":5126,
			"count":40,
			"max":[
				1,
				1.0939817428588867,
				1
			],
			"min":[
				-1,
				-1.5145556926727295,
				-1
			],
			"type":"VEC3"
		},
		{
			"bufferView":41,
			"componentType":5126,
			"count":40,
			"type":"VEC2"
		},
		{
			"bufferView":42,
			"componentType":5126,
			"count":40,
			"type":"VEC3"
		},
		{
			"bufferView":43,
			"componentType":5126,
			"count":40,
			"type":"VEC4"
		},
		{
			"bufferView":44,
			"componentType":5126,
			"count":40,
			"max":[
				1,
				1.0939817428588867,
				0.9999990463256836
			],
			"min":[
				-1,
				-1.5145556926727295,
				-1.0000009536743164
			],
			"type":"VEC3"
		},
		{
			"bufferView":45,
			"componentType":5126,
			"count":40,
			"type":"VEC2"
		},
		{
			"bufferView":46,
			"componentType":5126,
			"count":40,
			"type":"VEC3"
		},
		{
			"bufferView":47,
			"componentType":5126,
			"count":40,
			"type":"VEC4"
		},
		{
			"bufferView":48,
			"componentType":5126,
			"count":40,
			"max":[
				1,
				1.0939817428588867,
				0.9999990463256836
			],
			"min":[
				-1,
				-1.5145556926727295,
				-1.0000009536743164
			],
			"type":"VEC3"
		},
		{
			"bufferView":49,
			"componentType":5126,
			"count":40,
			"type":"VEC2"
		},
		{
			"bufferView":50,
			"componentType":5126,
			"count":40,
			"type":"VEC3"
		},
		{
			"bufferView":51,
			"componentType":5126,
			"count":40,
			"type":"VEC4"
		},
		{
			"bufferView":52,
			"componentType":5126,
			"count":40,
			"max":[
				1,
				1.6085374355316162,
				1
			],
			"min":[
				-1,
				-1,
				-1
			],
			"type":"VEC3"
		},
		{
			"bufferView":53,
			"componentType":5126,
			"count":40,
			"type":"VEC2"
		},
		{
			"bufferView":54,
			"componentType":5126,
			"count":40,
			"type":"VEC3"
		},
		{
			"bufferView":55,
			"componentType":5126,
			"count":40,
			"type":"VEC4"
		},
		{
			"bufferView":56,
			"componentType":5126,
			"count":40,
			"max":[
				1,
				1.6085374355316162,
				1
			],
			"min":[
				-1,
				-1,
				-1
			],
			"type":"VEC3"
		},
		{
			"bufferView":57,
			"componentType":5126,
			"count":40,
			"type":"VEC2"
		},
		{
			"bufferView":58,
			"componentType":5126,
			"count":40,
			"type":"VEC3"
		},
		{
			"bufferView":59,
			"componentType":5126,
			"count":40,
			"type":"VEC4"
		},
		{
			"bufferView":60,
			"componentType":5126,
			"count":40,
			"max":[
				1,
				1.6085374355316162,
				1
			],
			"min":[
				-1,
				-1,
				-1
			],
			"type":"VEC3"
		},
		{
			"bufferView":61,
			"componentType":5126,
			"count":40,
			"type":"VEC2"
		},
		{
			"bufferView":62,
			"componentType":5126,
			"count":40,
			"type":"VEC3"
		},
		{
			"bufferView":63,
			"componentType":5126,
			"count":40,
			"type":"VEC4"
		}
	],
	"bufferViews":[
		{
			"buffer":0,
			"byteLength":288,
			"byteOffset":0,
			"target":34962
		},
		{
			"buffer":0,
			"byteLength":192,
			"byteOffset":288,
			"target":34962
		},
		{
			"buffer":0,
			"byteLength":288,
			"byteOffset":480,
			"target":34962
		},
		{
			"buffer":0,
			"byteLength":384,
			"byteOffset":768,
			"target":34962
		},
		{
			"buffer":0,
			"byteLength":72,
			"byteOffset":1152,
			"target":34963
		},
		{
			"buffer":0,
			"byteLength":288,
			"byteOffset":1224,
			"target":34962
		},
		{
			"buffer":0,
			"byteLength":192,
			"byteOffset":1512,
			"target":34962
		},
		{
			"buffer":0,
			"byteLength":288,
			"byteOffset":1704,
			"target":34962
		},
		{
			"buffer":0,
			"byteLength":384,
			"byteOffset":1992,
			"target":34962
		},
		{
			"buffer":0,
			"byteLength":288,
			"byteOffset":2376,
			"target":34962
		},
		{
			"buffer":0,
			"byteLength":192,
			"byteOffset":2664,
			"target":34962
		},
		{
			"buffer":0,
			"byteLength":288,
			"byteOffset":2856,
			"target":34962
		},
		{
			"buffer":0,
			"byteLength":384,
			"byteOffset":3144,
			"target":34962
		},
		{
			"buffer":0,
			"byteLength":6708,
			"byteOffset":3528,
			"target":34962
		},
		{
			"buffer":0,
			"byteLength":4472,
			"byteOffset":10236,
			"target":34962
		},
		{
			"buffer":0,
			"byteLength":6708,
			"byteOffset":14708,
			"target":34962
		},
		{
			"buffer":0,
			"byteLength":8944,
			"byteOffset":21416,
			"target":34962
		},
		{
			"buffer":0,
			"byteLength":5760,
			"byteOffset":30360,
			"target":34963
		},
		{
			"buffer":0,
			"byteLength":480,
			"byteOffset":36120,
			"target":34962
		},
		{
			"buffer":0,
			"byteLength":320,
			"byteOffset":36600,
			"target":34962
		},
		{
			"buffer":0,
			"byteLength":480,
			"byteOffset":36920,
			"target":34962
		},
		{
			"buffer":0,
			"byteLength":640,
			"byteOffset":37400,
			"target":34962
		},
		{
			"buffer":0,
			"byteLength":120,
			"byteOffset":38040,
			"target":34963
		},
		{
			"buffer":0,
			"byteLength":480,
			"byteOffset":38160,
			"target":34962
		},
		{
			"buffer":0,
			"byteLength":320,
			"byteOffset":38640,
			"target":34962
		},
		{
			"buffer":0,
			"byteLength":480,
			"byteOffset":38960,
			"target":34962
		},
		{
			"buffer":0,
			"byteLength":640,
			"byteOffset":39440,
			"target":34962
		},
		{
			"buffer":0,
			"byteLength":120,
			"byteOffset":40080,
			"target":34963
		},
		{
			"buffer":0,
			"byteLength":480,
			"byteOffset":40200,
			"target":34962
		},
		{
			"buffer":0,
			"byteLength":320,
			"byteOffset":40680,
			"target":34962
		},
		{
			"buffer":0,
			"byteLength":480,
			"byteOffset":41000,
			"target":34962
		},
		{
			"buffer":0,
			"byteLength":640,
			"byteOffset":41480,
			"target":34962
		},
		{
			"buffer":0,
			"byteLength":480,
			"byteOffset":42120,
			"target":34962
		},
		{
			"buffer":0,
			"byteLength":320,
			"byteOffset":42600,
			"target":34962
		},
		{
			"buffer":0,
			"byteLength":480,
			"byteOffset":42920,
			"target":34962
		},
		{
			"buffer":0,
			"byteLength":640,
			"byteOffset":43400,
			"target":34962
		},
		{
			"buffer":0,
			"byteLength":480,
			"byteOffset":44040,
			"target":34962
		},
		{
			"buffer":0,
			"byteLength":320,
			"byteOffset":44520,
			"target":34962
		},
		{
			"buffer":0,
			"byteLength":480,
			"byteOffset":44840,
			"target":34962
		},
		{
			"buffer":0,
			"byteLength":640,
			"byteOffset":45320,
			"target":34962
		},
		{
			"buffer":0,
			"byteLength":480,
			"byteOffset":45960,
			"target":34962
		},
		{
			"buffer":0,
			"byteLength":320,
			"byteOffset":46440,
			"target":34962
		},
		{
			"buffer":0,
			"byteLength":480,
			"byteOffset":46760,
			"target":34962
		},
		{
			"buffer":0,
			"byteLength":640,
			"byteOffset":47240,
			"target":34962
		},
		{
			"buffer":0,
			"byteLength":480,
			"byteOffset":47880,
			"target":34962
		},
		{
			"buffer":0,
			"byteLength":320,
			"byteOffset":48360,
			"target":34962
		},
		{
			"buffer":0,
			"byteLength":480,
			"byteOffset":48680,
			"target":34962
		},
		{
			"buffer":0,
			"byteLength":640,
			"byteOffset":49160,
			"target":34962
		},
		{
			"buffer":0,
			"byteLength":480,
			"byteOffset":49800,
			"target":34962
		},
		{
			"buffer":0,
			"byteLength":320,
			"byteOffset":50280,
			"target":34962
		},
		{
			"buffer":0,
			"byteLength":480,
			"byteOffset":50600,
			"target":34962
		},
		{
			"buffer":0,
			"byteLength":640,
			"byteOffset":51080,
			"target":34962
		},
		{
			"buffer":0,
			"byteLength":480,
			"byteOffset":51720,
			"target":34962
		},
		{
			"buffer":0,
			"byteLength":320,
			"byteOffset":52200,
			"target":34962
		},
		{
			"buffer":0,
			"byteLength":480,
			"byteOffset":52520,
			"target":34962
		},
		{
			"buffer":0,
			"byteLength":640,
			"byteOffset":53000,
			"target":34962
		},
		{
			"buffer":0,
			"byteLength":480,
			"byteOffset":53640,
			"target":34962
		},
		{
			"buffer":0,
			"byteLength":320,
			"byteOffset":54120,
			"target":34962
		},
		{
			"buffer":0,
			"byteLength":480,
			"byteOffset":54440,
			"target":34962
		},
		{
			"buffer":0,
			"byteLength":640,
			"byteOffset":54920,
			"target":34962
		},
		{
			"buffer":0,
			"byteLength":480,
			"byteOffset":55560,
			"target":34962
		},
		{
			"buffer":0,
			"byteLength":320,
			"byteOffset":56040,
			"target":34962
		},
		{
			"buffer":0,
			"byteLength":480,
			"byteOffset":56360,
			"target":34962
		},
		{
			"buffer":0,
			"byteLength":640,
			"byteOffset":56840,
			"target":34962
		}
	],
	"buffers":[
		{
			"byteLength":57480,
			"uri":"data:application/octet-stream;base64,"
		}
	]
}
