{
	"asset":{
		"generator":"Khronos glTF Blender I/O v3.5.30",
		"version":"2.0"
	},
	"extensionsUsed":[
		"KHR_lights_punctual",
		"KHR_materials_unlit"
	],
	"extensionsRequired":[
		"KHR_lights_punctual"
	],
	"extensions":{
		"KHR_lights_punctual":{
			"lights":[
				{
					"color":[
						1,
						1,
						1
					],
					"intensity":2049,
					"type":"directional",
					"range":40,
					"name":"Sun"
				}
			]
		}
	},
	"scene":0,
	"scenes":[
		{
			"name":"Scene",
			"nodes":[
				0,
				1,
				2,
				3,
				4,
				5,
				6,
				7,
				8,
				9,
				10,
				11,
				12,
				13,
				14,
				15,
				16
			]
		}
	],
	"nodes":[
		{
			"camera":0,
			"name":"Camera",
			"rotation":[
				-0.20159360766410828,
				0.3201715052127838,
				0.06992777436971664,
				0.9230169653892517
			],
			"translation":[
				13,
				9,
				10
			]
		},
		{
			"mesh":0,
			"name":"wall1",
			"scale":[
				4.950199604034424,
				0.7362803220748901,
				1.0149025917053223
			],
			"translation":[
				-0.10000000149011612,
				0.44999998807907104,
				-4
			]
		},
		{
			"mesh":1,
			"name":"wall2",
			"scale":[
				1.1044005155563354,
				0.7604541778564453,
				1.4342050552368164
			],
			"translation":[
				1.899999976158142,
				0.44999998807907104,
				-8.100000381469727
			]
		},
		{
			"mesh":2,
			"name":"food",
			"translation":[
				3.4677069187164307,
				0.1907186508178711,
				-7.577731609344482
			]
		},
		{
			"extensions":{
				"KHR_lights_punctual":{
					"light":0
				}
			},
			"name":"main-light",
			"rotation":[
				-0.6793110966682434,
				0.5462433099746704,
				0.12403220683336258,
				0.4741000533103943
			],
			"translation":[
				7.667850017547607,
				8.106402397155762,
				-11.651026725769043
			]
		},
		{
			"mesh":3,
			"name":"tile1",
			"translation":[
				0.5,
				0,
				-0.5
			]
		},
		{
			"mesh":4,
			"name":"tile1.001",
			"translation":[
				0.5,
				0,
				-1.5
			]
		},
		{
			"mesh":5,
			"name":"tile1.002",
			"translation":[
				0.5,
				0,
				-2.5
			]
		},
		{
			"mesh":6,
			"name":"tile1.003",
			"translation":[
				0.5,
				0,
				-3.5
			]
		},
		{
			"mesh":7,
			"name":"tile1.004",
			"translation":[
				0.5,
				0,
				-4.5
			]
		},
		{
			"mesh":8,
			"name":"tile1.005",
			"translation":[
				0.5,
				0,
				-5.5
			]
		},
		{
			"mesh":9,
			"name":"tile1.006",
			"translation":[
				0.5,
				0,
				-6.5
			]
		},
		{
			"mesh":10,
			"name":"tile1.007",
			"translation":[
				0.5,
				0,
				-7.5
			]
		},
		{
			"mesh":11,
			"name":"tile1.008",
			"translation":[
				1.5,
				0,
				-7.5
			]
		},
		{
			"mesh":12,
			"name":"tile1.009",
			"translation":[
				2.5,
				0,
				-7.5
			]
		},
		{
			"mesh":13,
			"name":"tile1.010",
			"translation":[
				3.5,
				0,
				-7.5
			]
		},
		{
			"mesh":14,
			"name":"rat",
			"translation":[
				0.5,
				0,
				-0.5
			]
		}
	],
	"cameras":[
		{
			"name":"Camera",
			"orthographic":{
				"xmag":4.407144069671631,
				"ymag":2.4790185391902924,
				"zfar":100,
				"znear":0.10000000149011612
			},
			"type":"orthographic"
		}
	],
	"materials":[
		{
			"name":"Material",
			"pbrMetallicRoughness":{
				"baseColorFactor":[
					0.05329087749123573,
					0.09447328001260757,
					0.5613992810249329,
					1
				],
				"metallicFactor":0,
				"roughnessFactor":0.5
			}
		},
		{
			"extensions":{
				"KHR_materials_unlit":{}
			},
			"name":"rat-fur",
			"pbrMetallicRoughness":{
				"metallicFactor":0,
				"roughnessFactor":0.9
			}
		},
		{
			"emissiveFactor":[
				0.03569885715842247,
				0.004807180259376764,
				0.04509691148996353
			],
			"name":"rat-outline",
			"pbrMetallicRoughness":{
				"baseColorFactor":[
					0,
					0,
					0,
					1
				]
			}
		}
	],
	"meshes":[
		{
			"name":"Cube.003",
			"primitives":[
				{
					"attributes":{
						"POSITION":0,
						"TEXCOORD_0":1,
						"NORMAL":2,
						"TANGENT":3
					},
					"indices":4
				}
			]
		},
		{
			"name":"Cube.004",
			"primitives":[
				{
					"attributes":{
						"POSITION":5,
						"TEXCOORD_0":6,
						"NORMAL":7,
						"TANGENT":8
					},
					"indices":4
				}
			]
		},
		{
			"name":"Sphere",
			"primitives":[
				{
					"attributes":{
						"POSITION":9,
						"TEXCOORD_0":10,
						"NORMAL":11,
						"TANGENT":12
					},
					"indices":13
				}
			]
		},
		{
			"name":"Cube.002",
			"primitives":[
				{
					"attributes":{
						"POSITION":14,
						"TEXCOORD_0":15,
						"NORMAL":16,
						"TANGENT":17
					},
					"indices":18,
					"material":0
				}
			]
		},
		{
			"name":"Cube.014",
			"primitives":[
				{
					"attributes":{
						"POSITION":19,
						"TEXCOORD_0":20,
						"NORMAL":21,
						"TANGENT":22
					},
					"indices":18,
					"material":0
				}
			]
		},
		{
			"name":"Cube.016",
			"primitives":[
				{
					"attributes":{
						"POSITION":23,
						"TEXCOORD_0":24,
						"NORMAL":25,
						"TANGENT":26
					},
					"indices":18,
					"material":0
				}
			]
		},
		{
			"name":"Cube.017",
			"primitives":[
				{
					"attributes":{
						"POSITION":27,
						"TEXCOORD_0":28,
						"NORMAL":29,
						"TANGENT":30
					},
					"indices":18,
					"material":0
				}
			]
		},
		{
			"name":"Cube.018",
			"primitives":[
				{
					"attributes":{
						"POSITION":31,
						"TEXCOORD_0":32,
						"NORMAL":33,
						"TANGENT":34
					},
					"indices":18,
					"material":0
				}
			]
		},
		{
			"name":"Cube.019",
			"primitives":[
				{
					"attributes":{
						"POSITION":35,
						"TEXCOORD_0":36,
						"NORMAL":37,
						"TANGENT":38
					},
					"indices":18,
					"material":0
				}
			]
		},
		{
			"name":"Cube.020",
			"primitives":[
				{
					"attributes":{
						"POSITION":39,
						"TEXCOORD_0":40,
						"NORMAL":41,
						"TANGENT":42
					},
					"indices":18,
					"material":0
				}
			]
		},
		{
			"name":"Cube.021",
			"primitives":[
				{
					"attributes":{
						"POSITION":43,
						"TEXCOORD_0":44,
						"NORMAL":45,
						"TANGENT":46
					},
					"indices":18,
					"material":0
				}
			]
		},
		{
			"name":"Cube.022",
			"primitives":[
				{
					"attributes":{
						"POSITION":47,
						"TEXCOORD_0":48,
						"NORMAL":49,
						"TANGENT":50
					},
					"indices":18,
					"material":0
				}
			]
		},
		{
			"name":"Cube.023",
			"primitives":[
				{
					"attributes":{
						"POSITION":51,
						"TEXCOORD_0":52,
						"NORMAL":53,
						"TANGENT":54
					},
					"indices":18,
					"material":0
				}
			]
		},
		{
			"name":"Cube.024",
			"primitives":[
				{
					"attributes":{
						"POSITION":55,
						"TEXCOORD_0":56,
						"NORMAL":57,
						"TANGENT":58
					},
					"indices":18,
					"material":0
				}
			]
		},
		{
			"name":"Cube.001",
			"primitives":[
				{
					"attributes":{
						"POSITION":59,
						"TEXCOORD_0":60,
						"NORMAL":61,
						"TANGENT":62
					},
					"indices":63,
					"material":1
				},
				{
					"attributes":{
						"POSITION":64,
						"TEXCOORD_0":65,
						"NORMAL":66,
						"TANGENT":67
					},
					"indices":68,
					"material":2
				}
			]
		}
	],
	"accessors":[
		{
			"bufferView":0,
			"componentType":5126,
			"count":24,
			"max":[
				0.02020120620727539,
				0.6790891885757446,
				3.9412648677825928
			],
			"min":[
				-0.02020120620727539,
				-0.6790891885757446,
				-3.9412648677825928
			],
			"type":"VEC3"
		},
		{
			"bufferView":1,
			"componentType":5126,
			"count":24,
			"type":"VEC2"
		},
		{
			"bufferView":2,
			"componentType":5126,
			"count":24,
			"type":"VEC3"
		},
		{
			"bufferView":3,
			"componentType":5126,
			"count":24,
			"type":"VEC4"
		},
		{
			"bufferView":4,
			"componentType":5123,
			"count":36,
			"type":"SCALAR"
		},
		{
			"bufferView":5,
			"componentType":5126,
			"count":24,
			"max":[
				1.9014838933944702,
				0.6575018167495728,
				0.06972503662109375
			],
			"min":[
				-1.9014838933944702,
				-0.6575018167495728,
				-0.06972503662109375
			],
			"type":"VEC3"
		},
		{
			"bufferView":6,
			"componentType":5126,
			"count":24,
			"type":"VEC2"
		},
		{
			"bufferView":7,
			"componentType":5126,
			"count":24,
			"type":"VEC3"
		},
		{
			"bufferView":8,
			"componentType":5126,
			"count":24,
			"type":"VEC4"
		},
		{
			"bufferView":9,
			"componentType":5126,
			"count":559,
			"max":[
				0.19071859121322632,
				0.1907186508178711,
				0.19071853160858154
			],
			"min":[
				-0.19071847200393677,
				-0.1907186508178711,
				-0.1907186508178711
			],
			"type":"VEC3"
		},
		{
			"bufferView":10,
			"componentType":5126,
			"count":559,
			"type":"VEC2"
		},
		{
			"bufferView":11,
			"componentType":5126,
			"count":559,
			"type":"VEC3"
		},
		{
			"bufferView":12,
			"componentType":5126,
			"count":559,
			"type":"VEC4"
		},
		{
			"bufferView":13,
			"componentType":5123,
			"count":2880,
			"type":"SCALAR"
		},
		{
			"bufferView":14,
			"componentType":5126,
			"count":40,
			"max":[
				0.5,
				-0.00030091404914855957,
				0.5
			],
			"min":[
				-0.5,
				-0.13072778284549713,
				-0.5
			],
			"type":"VEC3"
		},
		{
			"bufferView":15,
			"componentType":5126,
			"count":40,
			"type":"VEC2"
		},
		{
			"bufferView":16,
			"componentType":5126,
			"count":40,
			"type":"VEC3"
		},
		{
			"bufferView":17,
			"componentType":5126,
			"count":40,
			"type":"VEC4"
		},
		{
			"bufferView":18,
			"componentType":5123,
			"count":60,
			"type":"SCALAR"
		},
		{
			"bufferView":19,
			"componentType":5126,
			"count":40,
			"max":[
				0.5,
				-0.00030091404914855957,
				0.5
			],
			"min":[
				-0.5,
				-0.13072778284549713,
				-0.5
			],
			"type":"VEC3"
		},
		{
			"bufferView":20,
			"componentType":5126,
			"count":40,
			"type":"VEC2"
		},
		{
			"bufferView":21,
			"componentType":5126,
			"count":40,
			"type":"VEC3"
		},
		{
			"bufferView":22,
			"componentType":5126,
			"count":40,
			"type":"VEC4"
		},
		{
			"bufferView":23,
			"componentType":5126,
			"count":40,
			"max":[
				0.5,
				-0.00030091404914855957,
				0.5
			],
			"min":[
				-0.5,
				-0.13072778284549713,
				-0.5
			],
			"type":"VEC3"
		},
		{
			"bufferView":24,
			"componentType":5126,
			"count":40,
			"type":"VEC2"
		},
		{
			"bufferView":25,
			"componentType":5126,
			"count":40,
			"type":"VEC3"
		},
		{
			"bufferView":26,
			"componentType":5126,
			"count":40,
			"type":"VEC4"
		},
		{
			"bufferView":27,
			"componentType":5126,
			"count":40,
			"max":[
				0.5,
				-0.00030091404914855957,
				0.5
			],
			"min":[
				-0.5,
				-0.13072778284549713,
				-0.5
			],
			"type":"VEC3"
		},
		{
			"bufferView":28,
			"componentType":5126,
			"count":40,
			"type":"VEC2"
		},
		{
			"bufferView":29,
			"componentType":5126,
			"count":40,
			"type":"VEC3"
		},
		{
			"bufferView":30,
			"componentType":5126,
			"count":40,
			"type":"VEC4"
		},
		{
			"bufferView":31,
			"componentType":5126,
			"count":40,
			"max":[
				0.5,
				-0.00030091404914855957,
				0.5
			],
			"min":[
				-0.5,
				-0.13072778284549713,
				-0.5
			],
			"type":"VEC3"
		},
		{
			"bufferView":32,
			"componentType":5126,
			"count":40,
			"type":"VEC2"
		},
		{
			"bufferView":33,
			"componentType":5126,
			"count":40,
			"type":"VEC3"
		},
		{
			"bufferView":34,
			"componentType":5126,
			"count":40,
			"type":"VEC4"
		},
		{
			"bufferView":35,
			"componentType":5126,
			"count":40,
			"max":[
				0.5,
				-0.00030091404914855957,
				0.5
			],
			"min":[
				-0.5,
				-0.13072778284549713,
				-0.5
			],
			"type":"VEC3"
		},
		{
			"bufferView":36,
			"componentType":5126,
			"count":40,
			"type":"VEC2"
		},
		{
			"bufferView":37,
			"componentType":5126,
			"count":40,
			"type":"VEC3"
		},
		{
			"bufferView":38,
			"componentType":5126,
			"count":40,
			"type":"VEC4"
		},
		{
			"bufferView":39,
			"componentType":5126,
			"count":40,
			"max":[
				0.5,
				-0.00030091404914855957,
				0.5
			],
			"min":[
				-0.5,
				-0.13072778284549713,
				-0.5
			],
			"type":"VEC3"
		},
		{
			"bufferView":40,
			"componentType":5126,
			"count":40,
			"type":"VEC2"
		},
		{
			"bufferView":41,
			"componentType":5126,
			"count":40,
			"type":"VEC3"
		},
		{
			"bufferView":42,
			"componentType":5126,
			"count":40,
			"type":"VEC4"
		},
		{
			"bufferView":43,
			"componentType":5126,
			"count":40,
			"max":[
				0.5,
				-0.00030091404914855957,
				0.5
			],
			"min":[
				-0.5,
				-0.13072778284549713,
				-0.5
			],
			"type":"VEC3"
		},
		{
			"bufferView":44,
			"componentType":5126,
			"count":40,
			"type":"VEC2"
		},
		{
			"bufferView":45,
			"componentType":5126,
			"count":40,
			"type":"VEC3"
		},
		{
			"bufferView":46,
			"componentType":5126,
			"count":40,
			"type":"VEC4"
		},
		{
			"bufferView":47,
			"componentType":5126,
			"count":40,
			"max":[
				0.5,
				-0.00030091404914855957,
				0.5
			],
			"min":[
				-0.5,
				-0.13072778284549713,
				-0.5
			],
			"type":"VEC3"
		},
		{
			"bufferView":48,
			"componentType":5126,
			"count":40,
			"type":"VEC2"
		},
		{
			"bufferView":49,
			"componentType":5126,
			"count":40,
			"type":"VEC3"
		},
		{
			"bufferView":50,
			"componentType":5126,
			"count":40,
			"type":"VEC4"
		},
		{
			"bufferView":51,
			"componentType":5126,
			"count":40,
			"max":[
				0.5,
				-0.00030091404914855957,
				0.5
			],
			"min":[
				-0.5,
				-0.13072778284549713,
				-0.5
			],
			"type":"VEC3"
		},
		{
			"bufferView":52,
			"componentType":5126,
			"count":40,
			"type":"VEC2"
		},
		{
			"bufferView":53,
			"componentType":5126,
			"count":40,
			"type":"VEC3"
		},
		{
			"bufferView":54,
			"componentType":5126,
			"count":40,
			"type":"VEC4"
		},
		{
			"bufferView":55,
			"componentType":5126,
			"count":40,
			"max":[
				0.5,
				-0.00030091404914855957,
				0.5
			],
			"min":[
				-0.5,
				-0.13072778284549713,
				-0.5
			],
			"type":"VEC3"
		},
		{
			"bufferView":56,
			"componentType":5126,
			"count":40,
			"type":"VEC2"
		},
		{
			"bufferView":57,
			"componentType":5126,
			"count":40,
			"type":"VEC3"
		},
		{
			"bufferView":58,
			"componentType":5126,
			"count":40,
			"type":"VEC4"
		},
		{
			"bufferView":59,
			"componentType":5126,
			"count":1440,
			"max":[
				0.12438362091779709,
				0.12903133034706116,
				0.7870622277259827
			],
			"min":[
				-0.12438362091779709,
				0.006342977285385132,
				-0.2806558609008789
			],
			"type":"VEC3"
		},
		{
			"bufferView":60,
			"componentType":5126,
			"count":1440,
			"type":"VEC2"
		},
		{
			"bufferView":61,
			"componentType":5126,
			"count":1440,
			"type":"VEC3"
		},
		{
			"bufferView":62,
			"componentType":5126,
			"count":1440,
			"type":"VEC4"
		},
		{
			"bufferView":63,
			"componentType":5123,
			"count":6540,
			"type":"SCALAR"
		},
		{
			"bufferView":64,
			"componentType":5126,
			"count":1440,
			"max":[
				0.1309211701154709,
				0.1364629566669464,
				0.7915241718292236
			],
			"min":[
				-0.1309211701154709,
				-0.001608571270480752,
				-0.28743478655815125
			],
			"type":"VEC3"
		},
		{
			"bufferView":65,
			"componentType":5126,
			"count":1440,
			"type":"VEC2"
		},
		{
			"bufferView":66,
			"componentType":5126,
			"count":1440,
			"type":"VEC3"
		},
		{
			"bufferView":67,
			"componentType":5126,
			"count":1440,
			"type":"VEC4"
		},
		{
			"bufferView":68,
			"componentType":5123,
			"count":6540,
			"type":"SCALAR"
		}
	],
	"bufferViews":[
		{
			"buffer":0,
			"byteLength":288,
			"byteOffset":0,
			"target":34962
		},
		{
			"buffer":0,
			"byteLength":192,
			"byteOffset":288,
			"target":34962
		},
		{
			"buffer":0,
			"byteLength":288,
			"byteOffset":480,
			"target":34962
		},
		{
			"buffer":0,
			"byteLength":384,
			"byteOffset":768,
			"target":34962
		},
		{
			"buffer":0,
			"byteLength":72,
			"byteOffset":1152,
			"target":34963
		},
		{
			"buffer":0,
			"byteLength":288,
			"byteOffset":1224,
			"target":34962
		},
		{
			"buffer":0,
			"byteLength":192,
			"byteOffset":1512,
			"target":34962
		},
		{
			"buffer":0,
			"byteLength":288,
			"byteOffset":1704,
			"target":34962
		},
		{
			"buffer":0,
			"byteLength":384,
			"byteOffset":1992,
			"target":34962
		},
		{
			"buffer":0,
			"byteLength":6708,
			"byteOffset":2376,
			"target":34962
		},
		{
			"buffer":0,
			"byteLength":4472,
			"byteOffset":9084,
			"target":34962
		},
		{
			"buffer":0,
			"byteLength":6708,
			"byteOffset":13556,
			"target":34962
		},
		{
			"buffer":0,
			"byteLength":8944,
			"byteOffset":20264,
			"target":34962
		},
		{
			"buffer":0,
			"byteLength":5760,
			"byteOffset":29208,
			"target":34963
		},
		{
			"buffer":0,
			"byteLength":480,
			"byteOffset":34968,
			"target":34962
		},
		{
			"buffer":0,
			"byteLength":320,
			"byteOffset":35448,
			"target":34962
		},
		{
			"buffer":0,
			"byteLength":480,
			"byteOffset":35768,
			"target":34962
		},
		{
			"buffer":0,
			"byteLength":640,
			"byteOffset":36248,
			"target":34962
		},
		{
			"buffer":0,
			"byteLength":120,
			"byteOffset":36888,
			"target":34963
		},
		{
			"buffer":0,
			"byteLength":480,
			"byteOffset":37008,
			"target":34962
		},
		{
			"buffer":0,
			"byteLength":320,
			"byteOffset":37488,
			"target":34962
		},
		{
			"buffer":0,
			"byteLength":480,
			"byteOffset":37808,
			"target":34962
		},
		{
			"buffer":0,
			"byteLength":640,
			"byteOffset":38288,
			"target":34962
		},
		{
			"buffer":0,
			"byteLength":480,
			"byteOffset":38928,
			"target":34962
		},
		{
			"buffer":0,
			"byteLength":320,
			"byteOffset":39408,
			"target":34962
		},
		{
			"buffer":0,
			"byteLength":480,
			"byteOffset":39728,
			"target":34962
		},
		{
			"buffer":0,
			"byteLength":640,
			"byteOffset":40208,
			"target":34962
		},
		{
			"buffer":0,
			"byteLength":480,
			"byteOffset":40848,
			"target":34962
		},
		{
			"buffer":0,
			"byteLength":320,
			"byteOffset":41328,
			"target":34962
		},
		{
			"buffer":0,
			"byteLength":480,
			"byteOffset":41648,
			"target":34962
		},
		{
			"buffer":0,
			"byteLength":640,
			"byteOffset":42128,
			"target":34962
		},
		{
			"buffer":0,
			"byteLength":480,
			"byteOffset":42768,
			"target":34962
		},
		{
			"buffer":0,
			"byteLength":320,
			"byteOffset":43248,
			"target":34962
		},
		{
			"buffer":0,
			"byteLength":480,
			"byteOffset":43568,
			"target":34962
		},
		{
			"buffer":0,
			"byteLength":640,
			"byteOffset":44048,
			"target":34962
		},
		{
			"buffer":0,
			"byteLength":480,
			"byteOffset":44688,
			"target":34962
		},
		{
			"buffer":0,
			"byteLength":320,
			"byteOffset":45168,
			"target":34962
		},
		{
			"buffer":0,
			"byteLength":480,
			"byteOffset":45488,
			"target":34962
		},
		{
			"buffer":0,
			"byteLength":640,
			"byteOffset":45968,
			"target":34962
		},
		{
			"buffer":0,
			"byteLength":480,
			"byteOffset":46608,
			"target":34962
		},
		{
			"buffer":0,
			"byteLength":320,
			"byteOffset":47088,
			"target":34962
		},
		{
			"buffer":0,
			"byteLength":480,
			"byteOffset":47408,
			"target":34962
		},
		{
			"buffer":0,
			"byteLength":640,
			"byteOffset":47888,
			"target":34962
		},
		{
			"buffer":0,
			"byteLength":480,
			"byteOffset":48528,
			"target":34962
		},
		{
			"buffer":0,
			"byteLength":320,
			"byteOffset":49008,
			"target":34962
		},
		{
			"buffer":0,
			"byteLength":480,
			"byteOffset":49328,
			"target":34962
		},
		{
			"buffer":0,
			"byteLength":640,
			"byteOffset":49808,
			"target":34962
		},
		{
			"buffer":0,
			"byteLength":480,
			"byteOffset":50448,
			"target":34962
		},
		{
			"buffer":0,
			"byteLength":320,
			"byteOffset":50928,
			"target":34962
		},
		{
			"buffer":0,
			"byteLength":480,
			"byteOffset":51248,
			"target":34962
		},
		{
			"buffer":0,
			"byteLength":640,
			"byteOffset":51728,
			"target":34962
		},
		{
			"buffer":0,
			"byteLength":480,
			"byteOffset":52368,
			"target":34962
		},
		{
			"buffer":0,
			"byteLength":320,
			"byteOffset":52848,
			"target":34962
		},
		{
			"buffer":0,
			"byteLength":480,
			"byteOffset":53168,
			"target":34962
		},
		{
			"buffer":0,
			"byteLength":640,
			"byteOffset":53648,
			"target":34962
		},
		{
			"buffer":0,
			"byteLength":480,
			"byteOffset":54288,
			"target":34962
		},
		{
			"buffer":0,
			"byteLength":320,
			"byteOffset":54768,
			"target":34962
		},
		{
			"buffer":0,
			"byteLength":480,
			"byteOffset":55088,
			"target":34962
		},
		{
			"buffer":0,
			"byteLength":640,
			"byteOffset":55568,
			"target":34962
		},
		{
			"buffer":0,
			"byteLength":17280,
			"byteOffset":56208,
			"target":34962
		},
		{
			"buffer":0,
			"byteLength":11520,
			"byteOffset":73488,
			"target":34962
		},
		{
			"buffer":0,
			"byteLength":17280,
			"byteOffset":85008,
			"target":34962
		},
		{
			"buffer":0,
			"byteLength":23040,
			"byteOffset":102288,
			"target":34962
		},
		{
			"buffer":0,
			"byteLength":13080,
			"byteOffset":125328,
			"target":34963
		},
		{
			"buffer":0,
			"byteLength":17280,
			"byteOffset":138408,
			"target":34962
		},
		{
			"buffer":0,
			"byteLength":11520,
			"byteOffset":155688,
			"target":34962
		},
		{
			"buffer":0,
			"byteLength":17280,
			"byteOffset":167208,
			"target":34962
		},
		{
			"buffer":0,
			"byteLength":23040,
			"byteOffset":184488,
			"target":34962
		},
		{
			"buffer":0,
			"byteLength":13080,
			"byteOffset":207528,
			"target":34963
		}
	],
	"buffers":[
		{
			"byteLength":220608,
			"uri":"data:application/octet-stream;base64,"
		}
	]
}
