{
	"asset":{
		"generator":"Khronos glTF Blender I/O v3.5.30",
		"version":"2.0"
	},
	"extensionsUsed":[
		"KHR_lights_punctual",
		"KHR_materials_specular",
		"KHR_materials_ior"
	],
	"extensionsRequired":[
		"KHR_lights_punctual"
	],
	"extensions":{
		"KHR_lights_punctual":{
			"lights":[
				{
					"color":[
						1,
						1,
						1
					],
					"intensity":2049,
					"type":"directional",
					"range":40,
					"name":"Sun"
				},
				{
					"color":[
						0.5598487257957458,
						0.2846902310848236,
						0.6678526401519775
					],
					"intensity":27175.70653294113,
					"type":"point",
					"name":"Point"
				},
				{
					"color":[
						0.38463401794433594,
						0.860411524772644,
						1
					],
					"intensity":27175.70653294113,
					"type":"point",
					"name":"Point.001"
				}
			]
		}
	},
	"scene":0,
	"scenes":[
		{
			"name":"Scene",
			"nodes":[
				0,
				1,
				2,
				3,
				4,
				5,
				6,
				7,
				8,
				9,
				10,
				11,
				12,
				13,
				14,
				15,
				16,
				17,
				18
			]
		}
	],
	"nodes":[
		{
			"mesh":0,
			"name":"wall1",
			"scale":[
				4.950199604034424,
				0.7362803220748901,
				1.0149025917053223
			],
			"translation":[
				-0.10000000149011612,
				0.3499999940395355,
				-4
			]
		},
		{
			"mesh":1,
			"name":"wall2",
			"scale":[
				1.1044005155563354,
				0.7604541778564453,
				1.4342050552368164
			],
			"translation":[
				1.899999976158142,
				0.3499999940395355,
				-8.100000381469727
			]
		},
		{
			"camera":0,
			"name":"Camera",
			"rotation":[
				-0.20159360766410828,
				0.3201715052127838,
				0.06992777436971664,
				0.9230169653892517
			],
			"translation":[
				13,
				9,
				10
			]
		},
		{
			"extensions":{
				"KHR_lights_punctual":{
					"light":0
				}
			},
			"name":"sun",
			"rotation":[
				-0.6793110966682434,
				0.5462433099746704,
				0.12403220683336258,
				0.4741000533103943
			],
			"translation":[
				7.667850017547607,
				8.106402397155762,
				-11.651026725769043
			]
		},
		{
			"extensions":{
				"KHR_lights_punctual":{
					"light":1
				}
			},
			"name":"Point",
			"rotation":[
				-0.7071068286895752,
				0,
				0,
				0.7071068286895752
			],
			"translation":[
				5.619723320007324,
				1.2247031927108765,
				-8.631693840026855
			]
		},
		{
			"extensions":{
				"KHR_lights_punctual":{
					"light":2
				}
			},
			"name":"Point.001",
			"rotation":[
				-0.7071068286895752,
				0,
				0,
				0.7071068286895752
			],
			"translation":[
				3.352417469024658,
				1.1389740705490112,
				1.0352312326431274
			]
		},
		{
			"mesh":2,
			"name":"tile1",
			"translation":[
				0.5,
				0,
				-0.5
			]
		},
		{
			"mesh":3,
			"name":"tile1.001",
			"translation":[
				0.5,
				0,
				-1.5
			]
		},
		{
			"mesh":4,
			"name":"tile1.002",
			"translation":[
				0.5,
				0,
				-2.5
			]
		},
		{
			"mesh":5,
			"name":"tile1.003",
			"translation":[
				0.5,
				0,
				-3.5
			]
		},
		{
			"mesh":6,
			"name":"tile1.004",
			"translation":[
				0.5,
				0,
				-4.5
			]
		},
		{
			"mesh":7,
			"name":"tile1.005",
			"translation":[
				0.5,
				0,
				-5.5
			]
		},
		{
			"mesh":8,
			"name":"tile1.006",
			"translation":[
				0.5,
				0,
				-6.5
			]
		},
		{
			"mesh":9,
			"name":"tile1.007",
			"translation":[
				0.5,
				0,
				-7.5
			]
		},
		{
			"mesh":10,
			"name":"tile1.008",
			"translation":[
				1.5,
				0,
				-7.5
			]
		},
		{
			"mesh":11,
			"name":"tile1.009",
			"translation":[
				2.5,
				0,
				-7.5
			]
		},
		{
			"mesh":12,
			"name":"tile1.010",
			"translation":[
				3.5,
				0,
				-7.5
			]
		},
		{
			"mesh":13,
			"name":"cheese",
			"translation":[
				3.5,
				0,
				-7.5
			]
		},
		{
			"mesh":14,
			"name":"rat",
			"translation":[
				0.5,
				0,
				-0.5
			]
		}
	],
	"cameras":[
		{
			"name":"Camera",
			"orthographic":{
				"xmag":4.407144069671631,
				"ymag":2.4790185391902924,
				"zfar":100,
				"znear":0.10000000149011612
			},
			"type":"orthographic"
		}
	],
	"materials":[
		{
			"name":"Material",
			"pbrMetallicRoughness":{
				"baseColorFactor":[
					0.05329087749123573,
					0.09447328001260757,
					0.5613992810249329,
					1
				],
				"metallicFactor":0,
				"roughnessFactor":0.5
			}
		},
		{
			"doubleSided":true,
			"emissiveFactor":[
				0.10000000149011612,
				0.05790266480896866,
				0
			],
			"extensions":{
				"KHR_materials_specular":{
					"specularColorFactor":[
						0,
						0,
						0
					]
				},
				"KHR_materials_ior":{
					"ior":1.4500000476837158
				}
			},
			"name":"cheese.002",
			"pbrMetallicRoughness":{
				"baseColorFactor":[
					0.8000000715255737,
					0.4615689516067505,
					0,
					1
				],
				"metallicFactor":0,
				"roughnessFactor":0.5
			}
		},
		{
			"emissiveFactor":[
				0.03569885715842247,
				0.004807180259376764,
				0.04509691148996353
			],
			"name":"outline.004",
			"pbrMetallicRoughness":{
				"baseColorFactor":[
					0,
					0,
					0,
					1
				]
			}
		},
		{
			"emissiveFactor":[
				0.10000000149011612,
				0.006198874953372402,
				0.06366101598234497
			],
			"extensions":{
				"KHR_materials_specular":{
					"specularColorFactor":[
						0,
						0,
						0
					]
				},
				"KHR_materials_ior":{
					"ior":1.4500000476837158
				}
			},
			"name":"rat.002",
			"pbrMetallicRoughness":{
				"baseColorFactor":[
					0.8000000715255737,
					0.030412843450903893,
					0.3593999445438385,
					1
				],
				"metallicFactor":0,
				"roughnessFactor":0.5
			}
		}
	],
	"meshes":[
		{
			"name":"Cube.003",
			"primitives":[
				{
					"attributes":{
						"POSITION":0,
						"TEXCOORD_0":1,
						"NORMAL":2,
						"TANGENT":3
					},
					"indices":4
				}
			]
		},
		{
			"name":"Cube.004",
			"primitives":[
				{
					"attributes":{
						"POSITION":5,
						"TEXCOORD_0":6,
						"NORMAL":7,
						"TANGENT":8
					},
					"indices":4
				}
			]
		},
		{
			"name":"Cube.002",
			"primitives":[
				{
					"attributes":{
						"POSITION":9,
						"TEXCOORD_0":10,
						"NORMAL":11,
						"TANGENT":12
					},
					"indices":13,
					"material":0
				}
			]
		},
		{
			"name":"Cube.014",
			"primitives":[
				{
					"attributes":{
						"POSITION":14,
						"TEXCOORD_0":15,
						"NORMAL":16,
						"TANGENT":17
					},
					"indices":13,
					"material":0
				}
			]
		},
		{
			"name":"Cube.016",
			"primitives":[
				{
					"attributes":{
						"POSITION":18,
						"TEXCOORD_0":19,
						"NORMAL":20,
						"TANGENT":21
					},
					"indices":13,
					"material":0
				}
			]
		},
		{
			"name":"Cube.017",
			"primitives":[
				{
					"attributes":{
						"POSITION":22,
						"TEXCOORD_0":23,
						"NORMAL":24,
						"TANGENT":25
					},
					"indices":13,
					"material":0
				}
			]
		},
		{
			"name":"Cube.018",
			"primitives":[
				{
					"attributes":{
						"POSITION":26,
						"TEXCOORD_0":27,
						"NORMAL":28,
						"TANGENT":29
					},
					"indices":13,
					"material":0
				}
			]
		},
		{
			"name":"Cube.019",
			"primitives":[
				{
					"attributes":{
						"POSITION":30,
						"TEXCOORD_0":31,
						"NORMAL":32,
						"TANGENT":33
					},
					"indices":13,
					"material":0
				}
			]
		},
		{
			"name":"Cube.020",
			"primitives":[
				{
					"attributes":{
						"POSITION":34,
						"TEXCOORD_0":35,
						"NORMAL":36,
						"TANGENT":37
					},
					"indices":13,
					"material":0
				}
			]
		},
		{
			"name":"Cube.021",
			"primitives":[
				{
					"attributes":{
						"POSITION":38,
						"TEXCOORD_0":39,
						"NORMAL":40,
						"TANGENT":41
					},
					"indices":13,
					"material":0
				}
			]
		},
		{
			"name":"Cube.022",
			"primitives":[
				{
					"attributes":{
						"POSITION":42,
						"TEXCOORD_0":43,
						"NORMAL":44,
						"TANGENT":45
					},
					"indices":13,
					"material":0
				}
			]
		},
		{
			"name":"Cube.023",
			"primitives":[
				{
					"attributes":{
						"POSITION":46,
						"TEXCOORD_0":47,
						"NORMAL":48,
						"TANGENT":49
					},
					"indices":13,
					"material":0
				}
			]
		},
		{
			"name":"Cube.024",
			"primitives":[
				{
					"attributes":{
						"POSITION":50,
						"TEXCOORD_0":51,
						"NORMAL":52,
						"TANGENT":53
					},
					"indices":13,
					"material":0
				}
			]
		},
		{
			"name":"Cube.005",
			"primitives":[
				{
					"attributes":{
						"POSITION":54,
						"TEXCOORD_0":55,
						"TEXCOORD_1":56,
						"NORMAL":57
					},
					"indices":58,
					"material":1
				},
				{
					"attributes":{
						"POSITION":59,
						"TEXCOORD_0":60,
						"TEXCOORD_1":61,
						"NORMAL":62
					},
					"indices":63,
					"material":2
				}
			]
		},
		{
			"name":"Cube.007",
			"primitives":[
				{
					"attributes":{
						"POSITION":64,
						"TEXCOORD_0":65,
						"NORMAL":66,
						"TANGENT":67
					},
					"indices":68,
					"material":3
				},
				{
					"attributes":{
						"POSITION":69,
						"TEXCOORD_0":70,
						"NORMAL":71,
						"TANGENT":72
					},
					"indices":73,
					"material":2
				}
			]
		}
	],
	"accessors":[
		{
			"bufferView":0,
			"componentType":5126,
			"count":24,
			"max":[
				0.02020120620727539,
				0.6790891885757446,
				3.9412648677825928
			],
			"min":[
				-0.02020120620727539,
				-0.6790891885757446,
				-3.9412648677825928
			],
			"type":"VEC3"
		},
		{
			"bufferView":1,
			"componentType":5126,
			"count":24,
			"type":"VEC2"
		},
		{
			"bufferView":2,
			"componentType":5126,
			"count":24,
			"type":"VEC3"
		},
		{
			"bufferView":3,
			"componentType":5126,
			"count":24,
			"type":"VEC4"
		},
		{
			"bufferView":4,
			"componentType":5123,
			"count":36,
			"type":"SCALAR"
		},
		{
			"bufferView":5,
			"componentType":5126,
			"count":24,
			"max":[
				1.9014838933944702,
				0.6575018167495728,
				0.06972503662109375
			],
			"min":[
				-1.9014838933944702,
				-0.6575018167495728,
				-0.06972503662109375
			],
			"type":"VEC3"
		},
		{
			"bufferView":6,
			"componentType":5126,
			"count":24,
			"type":"VEC2"
		},
		{
			"bufferView":7,
			"componentType":5126,
			"count":24,
			"type":"VEC3"
		},
		{
			"bufferView":8,
			"componentType":5126,
			"count":24,
			"type":"VEC4"
		},
		{
			"bufferView":9,
			"componentType":5126,
			"count":40,
			"max":[
				0.5,
				-0.00030091404914855957,
				0.5
			],
			"min":[
				-0.5,
				-0.13072778284549713,
				-0.5
			],
			"type":"VEC3"
		},
		{
			"bufferView":10,
			"componentType":5126,
			"count":40,
			"type":"VEC2"
		},
		{
			"bufferView":11,
			"componentType":5126,
			"count":40,
			"type":"VEC3"
		},
		{
			"bufferView":12,
			"componentType":5126,
			"count":40,
			"type":"VEC4"
		},
		{
			"bufferView":13,
			"componentType":5123,
			"count":60,
			"type":"SCALAR"
		},
		{
			"bufferView":14,
			"componentType":5126,
			"count":40,
			"max":[
				0.5,
				-0.00030091404914855957,
				0.5
			],
			"min":[
				-0.5,
				-0.13072778284549713,
				-0.5
			],
			"type":"VEC3"
		},
		{
			"bufferView":15,
			"componentType":5126,
			"count":40,
			"type":"VEC2"
		},
		{
			"bufferView":16,
			"componentType":5126,
			"count":40,
			"type":"VEC3"
		},
		{
			"bufferView":17,
			"componentType":5126,
			"count":40,
			"type":"VEC4"
		},
		{
			"bufferView":18,
			"componentType":5126,
			"count":40,
			"max":[
				0.5,
				-0.00030091404914855957,
				0.5
			],
			"min":[
				-0.5,
				-0.13072778284549713,
				-0.5
			],
			"type":"VEC3"
		},
		{
			"bufferView":19,
			"componentType":5126,
			"count":40,
			"type":"VEC2"
		},
		{
			"bufferView":20,
			"componentType":5126,
			"count":40,
			"type":"VEC3"
		},
		{
			"bufferView":21,
			"componentType":5126,
			"count":40,
			"type":"VEC4"
		},
		{
			"bufferView":22,
			"componentType":5126,
			"count":40,
			"max":[
				0.5,
				-0.00030091404914855957,
				0.5
			],
			"min":[
				-0.5,
				-0.13072778284549713,
				-0.5
			],
			"type":"VEC3"
		},
		{
			"bufferView":23,
			"componentType":5126,
			"count":40,
			"type":"VEC2"
		},
		{
			"bufferView":24,
			"componentType":5126,
			"count":40,
			"type":"VEC3"
		},
		{
			"bufferView":25,
			"componentType":5126,
			"count":40,
			"type":"VEC4"
		},
		{
			"bufferView":26,
			"componentType":5126,
			"count":40,
			"max":[
				0.5,
				-0.00030091404914855957,
				0.5
			],
			"min":[
				-0.5,
				-0.13072778284549713,
				-0.5
			],
			"type":"VEC3"
		},
		{
			"bufferView":27,
			"componentType":5126,
			"count":40,
			"type":"VEC2"
		},
		{
			"bufferView":28,
			"componentType":5126,
			"count":40,
			"type":"VEC3"
		},
		{
			"bufferView":29,
			"componentType":5126,
			"count":40,
			"type":"VEC4"
		},
		{
			"bufferView":30,
			"componentType":5126,
			"count":40,
			"max":[
				0.5,
				-0.00030091404914855957,
				0.5
			],
			"min":[
				-0.5,
				-0.13072778284549713,
				-0.5
			],
			"type":"VEC3"
		},
		{
			"bufferView":31,
			"componentType":5126,
			"count":40,
			"type":"VEC2"
		},
		{
			"bufferView":32,
			"componentType":5126,
			"count":40,
			"type":"VEC3"
		},
		{
			"bufferView":33,
			"componentType":5126,
			"count":40,
			"type":"VEC4"
		},
		{
			"bufferView":34,
			"componentType":5126,
			"count":40,
			"max":[
				0.5,
				-0.00030091404914855957,
				0.5
			],
			"min":[
				-0.5,
				-0.13072778284549713,
				-0.5
			],
			"type":"VEC3"
		},
		{
			"bufferView":35,
			"componentType":5126,
			"count":40,
			"type":"VEC2"
		},
		{
			"bufferView":36,
			"componentType":5126,
			"count":40,
			"type":"VEC3"
		},
		{
			"bufferView":37,
			"componentType":5126,
			"count":40,
			"type":"VEC4"
		},
		{
			"bufferView":38,
			"componentType":5126,
			"count":40,
			"max":[
				0.5,
				-0.00030091404914855957,
				0.5
			],
			"min":[
				-0.5,
				-0.13072778284549713,
				-0.5
			],
			"type":"VEC3"
		},
		{
			"bufferView":39,
			"componentType":5126,
			"count":40,
			"type":"VEC2"
		},
		{
			"bufferView":40,
			"componentType":5126,
			"count":40,
			"type":"VEC3"
		},
		{
			"bufferView":41,
			"componentType":5126,
			"count":40,
			"type":"VEC4"
		},
		{
			"bufferView":42,
			"componentType":5126,
			"count":40,
			"max":[
				0.5,
				-0.00030091404914855957,
				0.5
			],
			"min":[
				-0.5,
				-0.13072778284549713,
				-0.5
			],
			"type":"VEC3"
		},
		{
			"bufferView":43,
			"componentType":5126,
			"count":40,
			"type":"VEC2"
		},
		{
			"bufferView":44,
			"componentType":5126,
			"count":40,
			"type":"VEC3"
		},
		{
			"bufferView":45,
			"componentType":5126,
			"count":40,
			"type":"VEC4"
		},
		{
			"bufferView":46,
			"componentType":5126,
			"count":40,
			"max":[
				0.5,
				-0.00030091404914855957,
				0.5
			],
			"min":[
				-0.5,
				-0.13072778284549713,
				-0.5
			],
			"type":"VEC3"
		},
		{
			"bufferView":47,
			"componentType":5126,
			"count":40,
			"type":"VEC2"
		},
		{
			"bufferView":48,
			"componentType":5126,
			"count":40,
			"type":"VEC3"
		},
		{
			"bufferView":49,
			"componentType":5126,
			"count":40,
			"type":"VEC4"
		},
		{
			"bufferView":50,
			"componentType":5126,
			"count":40,
			"max":[
				0.5,
				-0.00030091404914855957,
				0.5
			],
			"min":[
				-0.5,
				-0.13072778284549713,
				-0.5
			],
			"type":"VEC3"
		},
		{
			"bufferView":51,
			"componentType":5126,
			"count":40,
			"type":"VEC2"
		},
		{
			"bufferView":52,
			"componentType":5126,
			"count":40,
			"type":"VEC3"
		},
		{
			"bufferView":53,
			"componentType":5126,
			"count":40,
			"type":"VEC4"
		},
		{
			"bufferView":54,
			"componentType":5126,
			"count":1615,
			"max":[
				0.17971304059028625,
				0.26130831241607666,
				0.17105238139629364
			],
			"min":[
				-0.1729080229997635,
				0.02066938392817974,
				-0.21135737001895905
			],
			"type":"VEC3"
		},
		{
			"bufferView":55,
			"componentType":5126,
			"count":1615,
			"type":"VEC2"
		},
		{
			"bufferView":56,
			"componentType":5126,
			"count":1615,
			"type":"VEC2"
		},
		{
			"bufferView":57,
			"componentType":5126,
			"count":1615,
			"type":"VEC3"
		},
		{
			"bufferView":58,
			"componentType":5123,
			"count":5574,
			"type":"SCALAR"
		},
		{
			"bufferView":59,
			"componentType":5126,
			"count":1667,
			"max":[
				0.19931551814079285,
				0.2807822525501251,
				0.1894909143447876
			],
			"min":[
				-0.19251060485839844,
				0.0010616369545459747,
				-0.23118656873703003
			],
			"type":"VEC3"
		},
		{
			"bufferView":60,
			"componentType":5126,
			"count":1667,
			"type":"VEC2"
		},
		{
			"bufferView":61,
			"componentType":5126,
			"count":1667,
			"type":"VEC2"
		},
		{
			"bufferView":62,
			"componentType":5126,
			"count":1667,
			"type":"VEC3"
		},
		{
			"bufferView":63,
			"componentType":5123,
			"count":5574,
			"type":"SCALAR"
		},
		{
			"bufferView":64,
			"componentType":5126,
			"count":1763,
			"max":[
				0.12430092692375183,
				0.14716984331607819,
				0.7719026803970337
			],
			"min":[
				-0.12430091202259064,
				0.02255839854478836,
				-0.2953666150569916
			],
			"type":"VEC3"
		},
		{
			"bufferView":65,
			"componentType":5126,
			"count":1763,
			"type":"VEC2"
		},
		{
			"bufferView":66,
			"componentType":5126,
			"count":1763,
			"type":"VEC3"
		},
		{
			"bufferView":67,
			"componentType":5126,
			"count":1763,
			"type":"VEC4"
		},
		{
			"bufferView":68,
			"componentType":5123,
			"count":6540,
			"type":"SCALAR"
		},
		{
			"bufferView":69,
			"componentType":5126,
			"count":1764,
			"max":[
				0.14424434304237366,
				0.16711708903312683,
				0.7907615303993225
			],
			"min":[
				-0.14424432814121246,
				0.00293106772005558,
				-0.315365731716156
			],
			"type":"VEC3"
		},
		{
			"bufferView":70,
			"componentType":5126,
			"count":1764,
			"type":"VEC2"
		},
		{
			"bufferView":71,
			"componentType":5126,
			"count":1764,
			"type":"VEC3"
		},
		{
			"bufferView":72,
			"componentType":5126,
			"count":1764,
			"type":"VEC4"
		},
		{
			"bufferView":73,
			"componentType":5123,
			"count":6540,
			"type":"SCALAR"
		}
	],
	"bufferViews":[
		{
			"buffer":0,
			"byteLength":288,
			"byteOffset":0,
			"target":34962
		},
		{
			"buffer":0,
			"byteLength":192,
			"byteOffset":288,
			"target":34962
		},
		{
			"buffer":0,
			"byteLength":288,
			"byteOffset":480,
			"target":34962
		},
		{
			"buffer":0,
			"byteLength":384,
			"byteOffset":768,
			"target":34962
		},
		{
			"buffer":0,
			"byteLength":72,
			"byteOffset":1152,
			"target":34963
		},
		{
			"buffer":0,
			"byteLength":288,
			"byteOffset":1224,
			"target":34962
		},
		{
			"buffer":0,
			"byteLength":192,
			"byteOffset":1512,
			"target":34962
		},
		{
			"buffer":0,
			"byteLength":288,
			"byteOffset":1704,
			"target":34962
		},
		{
			"buffer":0,
			"byteLength":384,
			"byteOffset":1992,
			"target":34962
		},
		{
			"buffer":0,
			"byteLength":480,
			"byteOffset":2376,
			"target":34962
		},
		{
			"buffer":0,
			"byteLength":320,
			"byteOffset":2856,
			"target":34962
		},
		{
			"buffer":0,
			"byteLength":480,
			"byteOffset":3176,
			"target":34962
		},
		{
			"buffer":0,
			"byteLength":640,
			"byteOffset":3656,
			"target":34962
		},
		{
			"buffer":0,
			"byteLength":120,
			"byteOffset":4296,
			"target":34963
		},
		{
			"buffer":0,
			"byteLength":480,
			"byteOffset":4416,
			"target":34962
		},
		{
			"buffer":0,
			"byteLength":320,
			"byteOffset":4896,
			"target":34962
		},
		{
			"buffer":0,
			"byteLength":480,
			"byteOffset":5216,
			"target":34962
		},
		{
			"buffer":0,
			"byteLength":640,
			"byteOffset":5696,
			"target":34962
		},
		{
			"buffer":0,
			"byteLength":480,
			"byteOffset":6336,
			"target":34962
		},
		{
			"buffer":0,
			"byteLength":320,
			"byteOffset":6816,
			"target":34962
		},
		{
			"buffer":0,
			"byteLength":480,
			"byteOffset":7136,
			"target":34962
		},
		{
			"buffer":0,
			"byteLength":640,
			"byteOffset":7616,
			"target":34962
		},
		{
			"buffer":0,
			"byteLength":480,
			"byteOffset":8256,
			"target":34962
		},
		{
			"buffer":0,
			"byteLength":320,
			"byteOffset":8736,
			"target":34962
		},
		{
			"buffer":0,
			"byteLength":480,
			"byteOffset":9056,
			"target":34962
		},
		{
			"buffer":0,
			"byteLength":640,
			"byteOffset":9536,
			"target":34962
		},
		{
			"buffer":0,
			"byteLength":480,
			"byteOffset":10176,
			"target":34962
		},
		{
			"buffer":0,
			"byteLength":320,
			"byteOffset":10656,
			"target":34962
		},
		{
			"buffer":0,
			"byteLength":480,
			"byteOffset":10976,
			"target":34962
		},
		{
			"buffer":0,
			"byteLength":640,
			"byteOffset":11456,
			"target":34962
		},
		{
			"buffer":0,
			"byteLength":480,
			"byteOffset":12096,
			"target":34962
		},
		{
			"buffer":0,
			"byteLength":320,
			"byteOffset":12576,
			"target":34962
		},
		{
			"buffer":0,
			"byteLength":480,
			"byteOffset":12896,
			"target":34962
		},
		{
			"buffer":0,
			"byteLength":640,
			"byteOffset":13376,
			"target":34962
		},
		{
			"buffer":0,
			"byteLength":480,
			"byteOffset":14016,
			"target":34962
		},
		{
			"buffer":0,
			"byteLength":320,
			"byteOffset":14496,
			"target":34962
		},
		{
			"buffer":0,
			"byteLength":480,
			"byteOffset":14816,
			"target":34962
		},
		{
			"buffer":0,
			"byteLength":640,
			"byteOffset":15296,
			"target":34962
		},
		{
			"buffer":0,
			"byteLength":480,
			"byteOffset":15936,
			"target":34962
		},
		{
			"buffer":0,
			"byteLength":320,
			"byteOffset":16416,
			"target":34962
		},
		{
			"buffer":0,
			"byteLength":480,
			"byteOffset":16736,
			"target":34962
		},
		{
			"buffer":0,
			"byteLength":640,
			"byteOffset":17216,
			"target":34962
		},
		{
			"buffer":0,
			"byteLength":480,
			"byteOffset":17856,
			"target":34962
		},
		{
			"buffer":0,
			"byteLength":320,
			"byteOffset":18336,
			"target":34962
		},
		{
			"buffer":0,
			"byteLength":480,
			"byteOffset":18656,
			"target":34962
		},
		{
			"buffer":0,
			"byteLength":640,
			"byteOffset":19136,
			"target":34962
		},
		{
			"buffer":0,
			"byteLength":480,
			"byteOffset":19776,
			"target":34962
		},
		{
			"buffer":0,
			"byteLength":320,
			"byteOffset":20256,
			"target":34962
		},
		{
			"buffer":0,
			"byteLength":480,
			"byteOffset":20576,
			"target":34962
		},
		{
			"buffer":0,
			"byteLength":640,
			"byteOffset":21056,
			"target":34962
		},
		{
			"buffer":0,
			"byteLength":480,
			"byteOffset":21696,
			"target":34962
		},
		{
			"buffer":0,
			"byteLength":320,
			"byteOffset":22176,
			"target":34962
		},
		{
			"buffer":0,
			"byteLength":480,
			"byteOffset":22496,
			"target":34962
		},
		{
			"buffer":0,
			"byteLength":640,
			"byteOffset":22976,
			"target":34962
		},
		{
			"buffer":0,
			"byteLength":19380,
			"byteOffset":23616,
			"target":34962
		},
		{
			"buffer":0,
			"byteLength":12920,
			"byteOffset":42996,
			"target":34962
		},
		{
			"buffer":0,
			"byteLength":12920,
			"byteOffset":55916,
			"target":34962
		},
		{
			"buffer":0,
			"byteLength":19380,
			"byteOffset":68836,
			"target":34962
		},
		{
			"buffer":0,
			"byteLength":11148,
			"byteOffset":88216,
			"target":34963
		},
		{
			"buffer":0,
			"byteLength":20004,
			"byteOffset":99364,
			"target":34962
		},
		{
			"buffer":0,
			"byteLength":13336,
			"byteOffset":119368,
			"target":34962
		},
		{
			"buffer":0,
			"byteLength":13336,
			"byteOffset":132704,
			"target":34962
		},
		{
			"buffer":0,
			"byteLength":20004,
			"byteOffset":146040,
			"target":34962
		},
		{
			"buffer":0,
			"byteLength":11148,
			"byteOffset":166044,
			"target":34963
		},
		{
			"buffer":0,
			"byteLength":21156,
			"byteOffset":177192,
			"target":34962
		},
		{
			"buffer":0,
			"byteLength":14104,
			"byteOffset":198348,
			"target":34962
		},
		{
			"buffer":0,
			"byteLength":21156,
			"byteOffset":212452,
			"target":34962
		},
		{
			"buffer":0,
			"byteLength":28208,
			"byteOffset":233608,
			"target":34962
		},
		{
			"buffer":0,
			"byteLength":13080,
			"byteOffset":261816,
			"target":34963
		},
		{
			"buffer":0,
			"byteLength":21168,
			"byteOffset":274896,
			"target":34962
		},
		{
			"buffer":0,
			"byteLength":14112,
			"byteOffset":296064,
			"target":34962
		},
		{
			"buffer":0,
			"byteLength":21168,
			"byteOffset":310176,
			"target":34962
		},
		{
			"buffer":0,
			"byteLength":28224,
			"byteOffset":331344,
			"target":34962
		},
		{
			"buffer":0,
			"byteLength":13080,
			"byteOffset":359568,
			"target":34963
		}
	],
	"buffers":[
		{
			"byteLength":372648,
			"uri":"data:application/octet-stream;base64,"
		}
	]
}
