{
	"asset":{
		"generator":"Khronos glTF Blender I/O v3.5.30",
		"version":"2.0"
	},
	"extensionsUsed":[
		"KHR_lights_punctual",
		"KHR_materials_unlit"
	],
	"extensionsRequired":[
		"KHR_lights_punctual"
	],
	"extensions":{
		"KHR_lights_punctual":{
			"lights":[
				{
					"color":[
						0.31167346239089966,
						1,
						0.23997677862644196
					],
					"intensity":27175.70653294113,
					"spot":{
						"innerConeAngle":0.14973094263356757,
						"outerConeAngle":0.3825981616973877
					},
					"type":"spot",
					"range":40,
					"name":"Spot"
				},
				{
					"color":[
						1,
						1,
						1
					],
					"intensity":1366,
					"type":"directional",
					"range":40,
					"name":"Sun"
				}
			]
		}
	},
	"scene":0,
	"scenes":[
		{
			"name":"Scene",
			"nodes":[
				0,
				1,
				2,
				3,
				4,
				5,
				6,
				7,
				8,
				9,
				10,
				11,
				12,
				13,
				14,
				15,
				16,
				17
			]
		}
	],
	"nodes":[
		{
			"camera":0,
			"name":"Camera",
			"rotation":[
				-0.20159360766410828,
				0.3201715052127838,
				0.06992777436971664,
				0.9230169653892517
			],
			"translation":[
				13,
				9,
				10
			]
		},
		{
			"mesh":0,
			"name":"wall1",
			"scale":[
				4.950199604034424,
				0.7362803220748901,
				1.0149025917053223
			],
			"translation":[
				-0.10000000149011612,
				0.5,
				-4
			]
		},
		{
			"mesh":1,
			"name":"wall2",
			"scale":[
				1.1044005155563354,
				0.7604541778564453,
				1.4342050552368164
			],
			"translation":[
				1.899999976158142,
				0.5,
				-8.100000381469727
			]
		},
		{
			"mesh":2,
			"name":"food",
			"translation":[
				3.4677069187164307,
				0.1907186508178711,
				-7.577731609344482
			]
		},
		{
			"extensions":{
				"KHR_lights_punctual":{
					"light":0
				}
			},
			"name":"food-spotlight",
			"rotation":[
				-0.526282787322998,
				-0.10149466246366501,
				-0.5421020984649658,
				0.6471867561340332
			],
			"translation":[
				4.5,
				2,
				-6.599999904632568
			]
		},
		{
			"extensions":{
				"KHR_lights_punctual":{
					"light":1
				}
			},
			"name":"main-light",
			"rotation":[
				-0.6612023115158081,
				0.0713028609752655,
				-0.29688265919685364,
				0.685265064239502
			],
			"translation":[
				4,
				6,
				-5
			]
		},
		{
			"mesh":3,
			"name":"tile1",
			"translation":[
				0.5,
				0.025727784261107445,
				-0.5
			]
		},
		{
			"mesh":4,
			"name":"tile2",
			"translation":[
				0.5,
				0.025727784261107445,
				-1.4999998807907104
			]
		},
		{
			"mesh":5,
			"name":"tile3",
			"translation":[
				0.5,
				0.025727784261107445,
				-2.500000476837158
			]
		},
		{
			"mesh":6,
			"name":"tile4",
			"translation":[
				0.5,
				0.025727784261107445,
				-3.500000476837158
			]
		},
		{
			"mesh":7,
			"name":"tile5",
			"translation":[
				0.5,
				0.025727784261107445,
				-4.5
			]
		},
		{
			"mesh":8,
			"name":"tile6",
			"translation":[
				0.5,
				0.025727784261107445,
				-5.5
			]
		},
		{
			"mesh":9,
			"name":"tile7",
			"translation":[
				0.5,
				0.025727784261107445,
				-6.499999523162842
			]
		},
		{
			"mesh":10,
			"name":"tile8",
			"translation":[
				0.5,
				0.025727784261107445,
				-7.499999523162842
			]
		},
		{
			"mesh":11,
			"name":"tile9",
			"translation":[
				1.5000457763671875,
				0.025727784261107445,
				-7.499867916107178
			]
		},
		{
			"mesh":12,
			"name":"tile10",
			"translation":[
				2.5000457763671875,
				0.025727784261107445,
				-7.499867916107178
			]
		},
		{
			"mesh":13,
			"name":"tile11",
			"translation":[
				3.5000462532043457,
				0.025727784261107445,
				-7.499867916107178
			]
		},
		{
			"mesh":14,
			"name":"rat",
			"translation":[
				0.5,
				0.08999999612569809,
				-0.5
			]
		}
	],
	"cameras":[
		{
			"name":"Camera",
			"orthographic":{
				"xmag":4.407144069671631,
				"ymag":2.4790185391902924,
				"zfar":100,
				"znear":0.10000000149011612
			},
			"type":"orthographic"
		}
	],
	"materials":[
		{
			"doubleSided":true,
			"name":"Material",
			"pbrMetallicRoughness":{
				"baseColorFactor":[
					0.05329087749123573,
					0.09447328001260757,
					0.5613992810249329,
					1
				],
				"metallicFactor":0,
				"roughnessFactor":0.5
			}
		},
		{
			"doubleSided":true,
			"extensions":{
				"KHR_materials_unlit":{}
			},
			"name":"rat-fur",
			"pbrMetallicRoughness":{
				"metallicFactor":0,
				"roughnessFactor":0.9
			}
		}
	],
	"meshes":[
		{
			"name":"Cube.003",
			"primitives":[
				{
					"attributes":{
						"POSITION":0,
						"TEXCOORD_0":1,
						"NORMAL":2,
						"TANGENT":3
					},
					"indices":4
				}
			]
		},
		{
			"name":"Cube.004",
			"primitives":[
				{
					"attributes":{
						"POSITION":5,
						"TEXCOORD_0":6,
						"NORMAL":7,
						"TANGENT":8
					},
					"indices":4
				}
			]
		},
		{
			"name":"Sphere",
			"primitives":[
				{
					"attributes":{
						"POSITION":9,
						"TEXCOORD_0":10,
						"NORMAL":11,
						"TANGENT":12
					},
					"indices":13
				}
			]
		},
		{
			"name":"Cube.002",
			"primitives":[
				{
					"attributes":{
						"POSITION":14,
						"TEXCOORD_0":15,
						"NORMAL":16,
						"TANGENT":17
					},
					"indices":18,
					"material":0
				}
			]
		},
		{
			"name":"Cube.005",
			"primitives":[
				{
					"attributes":{
						"POSITION":19,
						"TEXCOORD_0":20,
						"NORMAL":21,
						"TANGENT":22
					},
					"indices":23,
					"material":0
				}
			]
		},
		{
			"name":"Cube.006",
			"primitives":[
				{
					"attributes":{
						"POSITION":24,
						"TEXCOORD_0":25,
						"NORMAL":26,
						"TANGENT":27
					},
					"indices":23,
					"material":0
				}
			]
		},
		{
			"name":"Cube.007",
			"primitives":[
				{
					"attributes":{
						"POSITION":28,
						"TEXCOORD_0":29,
						"NORMAL":30,
						"TANGENT":31
					},
					"indices":23,
					"material":0
				}
			]
		},
		{
			"name":"Cube.008",
			"primitives":[
				{
					"attributes":{
						"POSITION":32,
						"TEXCOORD_0":33,
						"NORMAL":34,
						"TANGENT":35
					},
					"indices":23,
					"material":0
				}
			]
		},
		{
			"name":"Cube.009",
			"primitives":[
				{
					"attributes":{
						"POSITION":36,
						"TEXCOORD_0":37,
						"NORMAL":38,
						"TANGENT":39
					},
					"indices":23,
					"material":0
				}
			]
		},
		{
			"name":"Cube.010",
			"primitives":[
				{
					"attributes":{
						"POSITION":40,
						"TEXCOORD_0":41,
						"NORMAL":42,
						"TANGENT":43
					},
					"indices":23,
					"material":0
				}
			]
		},
		{
			"name":"Cube.011",
			"primitives":[
				{
					"attributes":{
						"POSITION":44,
						"TEXCOORD_0":45,
						"NORMAL":46,
						"TANGENT":47
					},
					"indices":23,
					"material":0
				}
			]
		},
		{
			"name":"Cube",
			"primitives":[
				{
					"attributes":{
						"POSITION":48,
						"TEXCOORD_0":49,
						"NORMAL":50,
						"TANGENT":51
					},
					"indices":18,
					"material":0
				}
			]
		},
		{
			"name":"Cube.012",
			"primitives":[
				{
					"attributes":{
						"POSITION":52,
						"TEXCOORD_0":53,
						"NORMAL":54,
						"TANGENT":55
					},
					"indices":18,
					"material":0
				}
			]
		},
		{
			"name":"Cube.013",
			"primitives":[
				{
					"attributes":{
						"POSITION":56,
						"TEXCOORD_0":57,
						"NORMAL":58,
						"TANGENT":59
					},
					"indices":18,
					"material":0
				}
			]
		},
		{
			"name":"Cube.001",
			"primitives":[
				{
					"attributes":{
						"POSITION":60,
						"TEXCOORD_0":61,
						"NORMAL":62
					},
					"indices":63,
					"material":1
				}
			]
		}
	],
	"accessors":[
		{
			"bufferView":0,
			"componentType":5126,
			"count":24,
			"max":[
				0.02020120620727539,
				0.6790891885757446,
				3.9412648677825928
			],
			"min":[
				-0.02020120620727539,
				-0.6790891885757446,
				-3.9412648677825928
			],
			"type":"VEC3"
		},
		{
			"bufferView":1,
			"componentType":5126,
			"count":24,
			"type":"VEC2"
		},
		{
			"bufferView":2,
			"componentType":5126,
			"count":24,
			"type":"VEC3"
		},
		{
			"bufferView":3,
			"componentType":5126,
			"count":24,
			"type":"VEC4"
		},
		{
			"bufferView":4,
			"componentType":5123,
			"count":36,
			"type":"SCALAR"
		},
		{
			"bufferView":5,
			"componentType":5126,
			"count":24,
			"max":[
				1.9014838933944702,
				0.6575018167495728,
				0.06972503662109375
			],
			"min":[
				-1.9014838933944702,
				-0.6575018167495728,
				-0.06972503662109375
			],
			"type":"VEC3"
		},
		{
			"bufferView":6,
			"componentType":5126,
			"count":24,
			"type":"VEC2"
		},
		{
			"bufferView":7,
			"componentType":5126,
			"count":24,
			"type":"VEC3"
		},
		{
			"bufferView":8,
			"componentType":5126,
			"count":24,
			"type":"VEC4"
		},
		{
			"bufferView":9,
			"componentType":5126,
			"count":559,
			"max":[
				0.19071859121322632,
				0.1907186508178711,
				0.19071853160858154
			],
			"min":[
				-0.19071847200393677,
				-0.1907186508178711,
				-0.1907186508178711
			],
			"type":"VEC3"
		},
		{
			"bufferView":10,
			"componentType":5126,
			"count":559,
			"type":"VEC2"
		},
		{
			"bufferView":11,
			"componentType":5126,
			"count":559,
			"type":"VEC3"
		},
		{
			"bufferView":12,
			"componentType":5126,
			"count":559,
			"type":"VEC4"
		},
		{
			"bufferView":13,
			"componentType":5123,
			"count":2880,
			"type":"SCALAR"
		},
		{
			"bufferView":14,
			"componentType":5126,
			"count":40,
			"max":[
				0.5,
				0.05469908565282822,
				0.5
			],
			"min":[
				-0.5,
				-0.07572778314352036,
				-0.5
			],
			"type":"VEC3"
		},
		{
			"bufferView":15,
			"componentType":5126,
			"count":40,
			"type":"VEC2"
		},
		{
			"bufferView":16,
			"componentType":5126,
			"count":40,
			"type":"VEC3"
		},
		{
			"bufferView":17,
			"componentType":5126,
			"count":40,
			"type":"VEC4"
		},
		{
			"bufferView":18,
			"componentType":5123,
			"count":60,
			"type":"SCALAR"
		},
		{
			"bufferView":19,
			"componentType":5126,
			"count":40,
			"max":[
				0.5,
				0.05469908565282822,
				0.49999988079071045
			],
			"min":[
				-0.5,
				-0.07572778314352036,
				-0.5000001192092896
			],
			"type":"VEC3"
		},
		{
			"bufferView":20,
			"componentType":5126,
			"count":40,
			"type":"VEC2"
		},
		{
			"bufferView":21,
			"componentType":5126,
			"count":40,
			"type":"VEC3"
		},
		{
			"bufferView":22,
			"componentType":5126,
			"count":40,
			"type":"VEC4"
		},
		{
			"bufferView":23,
			"componentType":5123,
			"count":60,
			"type":"SCALAR"
		},
		{
			"bufferView":24,
			"componentType":5126,
			"count":40,
			"max":[
				0.5,
				0.05469908565282822,
				0.5000004768371582
			],
			"min":[
				-0.5,
				-0.07572778314352036,
				-0.4999995231628418
			],
			"type":"VEC3"
		},
		{
			"bufferView":25,
			"componentType":5126,
			"count":40,
			"type":"VEC2"
		},
		{
			"bufferView":26,
			"componentType":5126,
			"count":40,
			"type":"VEC3"
		},
		{
			"bufferView":27,
			"componentType":5126,
			"count":40,
			"type":"VEC4"
		},
		{
			"bufferView":28,
			"componentType":5126,
			"count":40,
			"max":[
				0.5,
				0.05469908565282822,
				0.5000004768371582
			],
			"min":[
				-0.5,
				-0.07572778314352036,
				-0.4999995231628418
			],
			"type":"VEC3"
		},
		{
			"bufferView":29,
			"componentType":5126,
			"count":40,
			"type":"VEC2"
		},
		{
			"bufferView":30,
			"componentType":5126,
			"count":40,
			"type":"VEC3"
		},
		{
			"bufferView":31,
			"componentType":5126,
			"count":40,
			"type":"VEC4"
		},
		{
			"bufferView":32,
			"componentType":5126,
			"count":40,
			"max":[
				0.5,
				0.05469908565282822,
				0.5
			],
			"min":[
				-0.5,
				-0.07572778314352036,
				-0.5
			],
			"type":"VEC3"
		},
		{
			"bufferView":33,
			"componentType":5126,
			"count":40,
			"type":"VEC2"
		},
		{
			"bufferView":34,
			"componentType":5126,
			"count":40,
			"type":"VEC3"
		},
		{
			"bufferView":35,
			"componentType":5126,
			"count":40,
			"type":"VEC4"
		},
		{
			"bufferView":36,
			"componentType":5126,
			"count":40,
			"max":[
				0.5,
				0.05469908565282822,
				0.5
			],
			"min":[
				-0.5,
				-0.07572778314352036,
				-0.5
			],
			"type":"VEC3"
		},
		{
			"bufferView":37,
			"componentType":5126,
			"count":40,
			"type":"VEC2"
		},
		{
			"bufferView":38,
			"componentType":5126,
			"count":40,
			"type":"VEC3"
		},
		{
			"bufferView":39,
			"componentType":5126,
			"count":40,
			"type":"VEC4"
		},
		{
			"bufferView":40,
			"componentType":5126,
			"count":40,
			"max":[
				0.5,
				0.05469908565282822,
				0.4999995231628418
			],
			"min":[
				-0.5,
				-0.07572778314352036,
				-0.5000004768371582
			],
			"type":"VEC3"
		},
		{
			"bufferView":41,
			"componentType":5126,
			"count":40,
			"type":"VEC2"
		},
		{
			"bufferView":42,
			"componentType":5126,
			"count":40,
			"type":"VEC3"
		},
		{
			"bufferView":43,
			"componentType":5126,
			"count":40,
			"type":"VEC4"
		},
		{
			"bufferView":44,
			"componentType":5126,
			"count":40,
			"max":[
				0.5,
				0.05469908565282822,
				0.4999995231628418
			],
			"min":[
				-0.5,
				-0.07572778314352036,
				-0.5000004768371582
			],
			"type":"VEC3"
		},
		{
			"bufferView":45,
			"componentType":5126,
			"count":40,
			"type":"VEC2"
		},
		{
			"bufferView":46,
			"componentType":5126,
			"count":40,
			"type":"VEC3"
		},
		{
			"bufferView":47,
			"componentType":5126,
			"count":40,
			"type":"VEC4"
		},
		{
			"bufferView":48,
			"componentType":5126,
			"count":40,
			"max":[
				0.5,
				0.05469908565282822,
				0.5000009536743164
			],
			"min":[
				-0.5000001192092896,
				-0.07572778314352036,
				-0.4999990463256836
			],
			"type":"VEC3"
		},
		{
			"bufferView":49,
			"componentType":5126,
			"count":40,
			"type":"VEC2"
		},
		{
			"bufferView":50,
			"componentType":5126,
			"count":40,
			"type":"VEC3"
		},
		{
			"bufferView":51,
			"componentType":5126,
			"count":40,
			"type":"VEC4"
		},
		{
			"bufferView":52,
			"componentType":5126,
			"count":40,
			"max":[
				0.5,
				0.05469908565282822,
				0.5000009536743164
			],
			"min":[
				-0.5,
				-0.07572778314352036,
				-0.4999990463256836
			],
			"type":"VEC3"
		},
		{
			"bufferView":53,
			"componentType":5126,
			"count":40,
			"type":"VEC2"
		},
		{
			"bufferView":54,
			"componentType":5126,
			"count":40,
			"type":"VEC3"
		},
		{
			"bufferView":55,
			"componentType":5126,
			"count":40,
			"type":"VEC4"
		},
		{
			"bufferView":56,
			"componentType":5126,
			"count":40,
			"max":[
				0.4999995231628418,
				0.05469908565282822,
				0.5000009536743164
			],
			"min":[
				-0.5000004768371582,
				-0.07572778314352036,
				-0.4999990463256836
			],
			"type":"VEC3"
		},
		{
			"bufferView":57,
			"componentType":5126,
			"count":40,
			"type":"VEC2"
		},
		{
			"bufferView":58,
			"componentType":5126,
			"count":40,
			"type":"VEC3"
		},
		{
			"bufferView":59,
			"componentType":5126,
			"count":40,
			"type":"VEC4"
		},
		{
			"bufferView":60,
			"componentType":5126,
			"count":209,
			"max":[
				0.13529446721076965,
				0.14259660243988037,
				0.7972885370254517
			],
			"min":[
				0,
				-3.725290298461914e-09,
				-0.28927934169769287
			],
			"type":"VEC3"
		},
		{
			"bufferView":61,
			"componentType":5126,
			"count":209,
			"type":"VEC2"
		},
		{
			"bufferView":62,
			"componentType":5126,
			"count":209,
			"type":"VEC3"
		},
		{
			"bufferView":63,
			"componentType":5123,
			"count":819,
			"type":"SCALAR"
		}
	],
	"bufferViews":[
		{
			"buffer":0,
			"byteLength":288,
			"byteOffset":0,
			"target":34962
		},
		{
			"buffer":0,
			"byteLength":192,
			"byteOffset":288,
			"target":34962
		},
		{
			"buffer":0,
			"byteLength":288,
			"byteOffset":480,
			"target":34962
		},
		{
			"buffer":0,
			"byteLength":384,
			"byteOffset":768,
			"target":34962
		},
		{
			"buffer":0,
			"byteLength":72,
			"byteOffset":1152,
			"target":34963
		},
		{
			"buffer":0,
			"byteLength":288,
			"byteOffset":1224,
			"target":34962
		},
		{
			"buffer":0,
			"byteLength":192,
			"byteOffset":1512,
			"target":34962
		},
		{
			"buffer":0,
			"byteLength":288,
			"byteOffset":1704,
			"target":34962
		},
		{
			"buffer":0,
			"byteLength":384,
			"byteOffset":1992,
			"target":34962
		},
		{
			"buffer":0,
			"byteLength":6708,
			"byteOffset":2376,
			"target":34962
		},
		{
			"buffer":0,
			"byteLength":4472,
			"byteOffset":9084,
			"target":34962
		},
		{
			"buffer":0,
			"byteLength":6708,
			"byteOffset":13556,
			"target":34962
		},
		{
			"buffer":0,
			"byteLength":8944,
			"byteOffset":20264,
			"target":34962
		},
		{
			"buffer":0,
			"byteLength":5760,
			"byteOffset":29208,
			"target":34963
		},
		{
			"buffer":0,
			"byteLength":480,
			"byteOffset":34968,
			"target":34962
		},
		{
			"buffer":0,
			"byteLength":320,
			"byteOffset":35448,
			"target":34962
		},
		{
			"buffer":0,
			"byteLength":480,
			"byteOffset":35768,
			"target":34962
		},
		{
			"buffer":0,
			"byteLength":640,
			"byteOffset":36248,
			"target":34962
		},
		{
			"buffer":0,
			"byteLength":120,
			"byteOffset":36888,
			"target":34963
		},
		{
			"buffer":0,
			"byteLength":480,
			"byteOffset":37008,
			"target":34962
		},
		{
			"buffer":0,
			"byteLength":320,
			"byteOffset":37488,
			"target":34962
		},
		{
			"buffer":0,
			"byteLength":480,
			"byteOffset":37808,
			"target":34962
		},
		{
			"buffer":0,
			"byteLength":640,
			"byteOffset":38288,
			"target":34962
		},
		{
			"buffer":0,
			"byteLength":120,
			"byteOffset":38928,
			"target":34963
		},
		{
			"buffer":0,
			"byteLength":480,
			"byteOffset":39048,
			"target":34962
		},
		{
			"buffer":0,
			"byteLength":320,
			"byteOffset":39528,
			"target":34962
		},
		{
			"buffer":0,
			"byteLength":480,
			"byteOffset":39848,
			"target":34962
		},
		{
			"buffer":0,
			"byteLength":640,
			"byteOffset":40328,
			"target":34962
		},
		{
			"buffer":0,
			"byteLength":480,
			"byteOffset":40968,
			"target":34962
		},
		{
			"buffer":0,
			"byteLength":320,
			"byteOffset":41448,
			"target":34962
		},
		{
			"buffer":0,
			"byteLength":480,
			"byteOffset":41768,
			"target":34962
		},
		{
			"buffer":0,
			"byteLength":640,
			"byteOffset":42248,
			"target":34962
		},
		{
			"buffer":0,
			"byteLength":480,
			"byteOffset":42888,
			"target":34962
		},
		{
			"buffer":0,
			"byteLength":320,
			"byteOffset":43368,
			"target":34962
		},
		{
			"buffer":0,
			"byteLength":480,
			"byteOffset":43688,
			"target":34962
		},
		{
			"buffer":0,
			"byteLength":640,
			"byteOffset":44168,
			"target":34962
		},
		{
			"buffer":0,
			"byteLength":480,
			"byteOffset":44808,
			"target":34962
		},
		{
			"buffer":0,
			"byteLength":320,
			"byteOffset":45288,
			"target":34962
		},
		{
			"buffer":0,
			"byteLength":480,
			"byteOffset":45608,
			"target":34962
		},
		{
			"buffer":0,
			"byteLength":640,
			"byteOffset":46088,
			"target":34962
		},
		{
			"buffer":0,
			"byteLength":480,
			"byteOffset":46728,
			"target":34962
		},
		{
			"buffer":0,
			"byteLength":320,
			"byteOffset":47208,
			"target":34962
		},
		{
			"buffer":0,
			"byteLength":480,
			"byteOffset":47528,
			"target":34962
		},
		{
			"buffer":0,
			"byteLength":640,
			"byteOffset":48008,
			"target":34962
		},
		{
			"buffer":0,
			"byteLength":480,
			"byteOffset":48648,
			"target":34962
		},
		{
			"buffer":0,
			"byteLength":320,
			"byteOffset":49128,
			"target":34962
		},
		{
			"buffer":0,
			"byteLength":480,
			"byteOffset":49448,
			"target":34962
		},
		{
			"buffer":0,
			"byteLength":640,
			"byteOffset":49928,
			"target":34962
		},
		{
			"buffer":0,
			"byteLength":480,
			"byteOffset":50568,
			"target":34962
		},
		{
			"buffer":0,
			"byteLength":320,
			"byteOffset":51048,
			"target":34962
		},
		{
			"buffer":0,
			"byteLength":480,
			"byteOffset":51368,
			"target":34962
		},
		{
			"buffer":0,
			"byteLength":640,
			"byteOffset":51848,
			"target":34962
		},
		{
			"buffer":0,
			"byteLength":480,
			"byteOffset":52488,
			"target":34962
		},
		{
			"buffer":0,
			"byteLength":320,
			"byteOffset":52968,
			"target":34962
		},
		{
			"buffer":0,
			"byteLength":480,
			"byteOffset":53288,
			"target":34962
		},
		{
			"buffer":0,
			"byteLength":640,
			"byteOffset":53768,
			"target":34962
		},
		{
			"buffer":0,
			"byteLength":480,
			"byteOffset":54408,
			"target":34962
		},
		{
			"buffer":0,
			"byteLength":320,
			"byteOffset":54888,
			"target":34962
		},
		{
			"buffer":0,
			"byteLength":480,
			"byteOffset":55208,
			"target":34962
		},
		{
			"buffer":0,
			"byteLength":640,
			"byteOffset":55688,
			"target":34962
		},
		{
			"buffer":0,
			"byteLength":2508,
			"byteOffset":56328,
			"target":34962
		},
		{
			"buffer":0,
			"byteLength":1672,
			"byteOffset":58836,
			"target":34962
		},
		{
			"buffer":0,
			"byteLength":2508,
			"byteOffset":60508,
			"target":34962
		},
		{
			"buffer":0,
			"byteLength":1638,
			"byteOffset":63016,
			"target":34963
		}
	],
	"buffers":[
		{
			"byteLength":64656,
			"uri":"data:application/octet-stream;base64,"
		}
	]
}
